<?xml version="1.0" standalone="no"?>
<!DOCTYPE svg PUBLIC "-//W3C//DTD SVG 20010904//EN"
 "http://www.w3.org/TR/2001/REC-SVG-20010904/DTD/svg10.dtd">
<svg version="1.0" xmlns="http://www.w3.org/2000/svg"
 width="1920.000000pt" height="1080.000000pt" viewBox="0 0 1920.000000 1080.000000"
 preserveAspectRatio="xMidYMid meet">

<g transform="translate(0.000000,1080.000000) scale(0.100000,-0.100000)"
fill="#000000" stroke="none">
<path d="M508 10616 c-74 -26 -123 -75 -147 -145 -33 -99 15 -212 112 -264 41
-21 52 -22 412 -25 204 -2 385 0 402 3 l33 6 -3 65 c-2 53 1 63 13 59 9 -3 7
1 -4 10 -11 8 -14 15 -7 15 7 0 10 4 6 10 -3 5 -6 67 -6 139 -1 124 -2 129
-22 135 -12 3 -186 6 -387 5 -278 0 -374 -3 -402 -13z m602 -201 l0 -65 -84 0
c-61 0 -87 4 -96 15 -16 19 -9 49 13 53 13 3 16 -2 15 -20 -3 -20 2 -23 35
-26 36 -3 37 -3 37 32 0 25 4 36 15 36 10 0 15 -11 15 -35 0 -19 5 -35 10 -35
6 0 10 25 10 55 0 42 3 55 15 55 12 0 15 -14 15 -65z m52 8 l2 -58 3 58 c3 41
8 57 18 57 9 0 15 -10 15 -24 0 -23 3 -24 36 -19 43 7 64 -13 64 -59 l0 -28
-85 0 -85 0 0 65 c0 51 3 65 15 65 11 0 15 -14 17 -57z m-544 5 c7 -7 12 -22
12 -35 0 -14 6 -23 15 -23 10 0 15 11 15 35 0 24 5 35 15 35 10 0 15 -11 15
-35 0 -32 2 -35 30 -35 17 0 30 4 30 9 0 23 -14 41 -31 41 -10 0 -19 5 -19 11
0 6 14 9 32 7 27 -2 34 -9 42 -35 8 -29 13 -33 42 -33 30 0 34 3 34 25 0 21
-5 25 -30 25 -16 0 -30 5 -30 10 0 11 49 14 74 4 11 -4 16 -19 16 -45 l0 -39
-165 0 c-103 0 -165 4 -165 10 0 6 11 10 25 10 20 0 25 5 25 25 0 18 -5 25
-20 25 -11 0 -20 5 -20 10 0 14 43 13 58 -2z m82 -98 c0 -5 -11 -10 -25 -10
-14 0 -25 5 -25 10 0 6 11 10 25 10 14 0 25 -4 25 -10z m148 -8 c2 -7 -3 -12
-12 -12 -9 0 -16 7 -16 16 0 17 22 14 28 -4z m156 3 c4 -10 -1 -15 -14 -15
-20 0 -26 11 -13 23 10 11 20 8 27 -8z"/>
<path d="M1217 10402 c-24 -27 -21 -32 18 -32 35 0 40 5 29 34 -8 21 -27 20
-47 -2z"/>
<path d="M16880 10565 c0 -13 14 -15 98 -13 126 4 124 22 -3 26 -81 2 -95 0
-95 -13z"/>
<path d="M17117 10573 c-4 -3 -7 -51 -7 -105 l0 -98 80 0 c105 0 120 13 120
104 0 58 -3 67 -26 85 -21 17 -41 21 -94 21 -37 0 -70 -3 -73 -7z m151 -35 c7
-7 12 -35 12 -63 0 -28 -5 -56 -12 -63 -7 -7 -38 -12 -70 -12 l-58 0 0 75 0
75 58 0 c32 0 63 -5 70 -12z"/>
<path d="M17350 10496 c0 -110 12 -126 99 -126 53 0 62 3 81 27 18 23 20 38
18 102 -2 48 -7 76 -15 79 -10 3 -13 -15 -13 -68 0 -97 -8 -110 -69 -110 -28
0 -53 6 -59 13 -6 7 -12 46 -14 87 -2 48 -7 75 -15 78 -10 3 -13 -18 -13 -82z"/>
<path d="M17820 10475 l0 -106 95 3 c119 4 131 22 18 26 l-83 3 0 29 0 29 83
3 c46 2 82 7 82 13 0 6 -36 11 -82 13 l-83 3 0 29 0 29 80 3 c112 4 102 22
-15 26 l-95 3 0 -106z"/>
<path d="M18057 10573 c-12 -11 -8 -58 7 -78 12 -16 12 -22 -1 -41 -17 -26
-14 -75 5 -82 8 -2 12 7 12 26 0 43 23 62 74 62 49 0 63 -11 68 -54 1 -16 9
-31 16 -34 16 -5 16 70 0 86 -9 9 -9 15 0 24 17 17 16 101 0 96 -7 -3 -15 -18
-16 -34 -5 -43 -20 -54 -73 -54 -53 0 -69 15 -69 64 0 25 -10 33 -23 19z"/>
<path d="M17590 10470 c0 -60 4 -100 10 -100 6 0 10 32 10 75 0 41 3 75 7 75
4 0 17 -10 30 -22 17 -16 23 -18 23 -7 0 15 -59 79 -73 79 -4 0 -7 -45 -7
-100z"/>
<path d="M2854 10526 c-96 -42 -101 -177 -8 -221 49 -23 99 -14 137 23 60 60
40 165 -38 198 -42 17 -51 17 -91 0z m119 -46 c30 -34 36 -84 13 -115 -14 -19
-15 -19 -33 -2 -24 21 -82 22 -109 2 -27 -20 -31 -19 -43 15 -16 47 5 101 49
123 46 23 87 15 123 -23z m-26 -136 c11 -30 -47 -45 -88 -23 -16 8 -18 13 -8
25 16 20 88 19 96 -2z"/>
<path d="M2870 10465 c-26 -32 13 -81 48 -59 34 22 22 74 -18 74 -10 0 -23 -7
-30 -15z m45 -25 c0 -8 -8 -16 -17 -18 -13 -2 -18 3 -18 18 0 15 5 20 18 18 9
-2 17 -10 17 -18z"/>
<path d="M18415 10520 c4 -6 62 -10 140 -10 78 0 136 4 140 10 4 6 -45 10
-140 10 -95 0 -144 -4 -140 -10z"/>
<path d="M8055 10489 c-4 -6 -5 -12 -2 -15 2 -3 7 2 10 11 7 17 1 20 -8 4z"/>
<path d="M11045 10479 c-4 -6 -5 -12 -2 -15 2 -3 7 2 10 11 7 17 1 20 -8 4z"/>
<path d="M16880 10475 c0 -13 14 -15 98 -13 126 4 124 22 -3 26 -81 2 -95 0
-95 -13z"/>
<path d="M1760 10406 c-4 -51 -9 -72 -22 -80 -28 -17 -53 5 -51 45 l1 34 -10
-32 c-13 -41 2 -63 43 -63 38 0 51 27 47 103 l-4 62 -4 -69z"/>
<path d="M2100 10415 c0 -52 -1 -55 -25 -55 -21 0 -25 5 -25 30 0 19 -7 33
-21 40 -11 7 -23 9 -26 7 -2 -3 5 -8 16 -12 15 -4 21 -15 21 -35 0 -24 -5 -29
-27 -33 -16 -2 0 -5 35 -6 l62 -1 0 60 c0 33 -2 60 -5 60 -3 0 -5 -25 -5 -55z"/>
<path d="M2143 10410 c0 -36 2 -50 4 -32 2 17 2 47 0 65 -2 17 -4 3 -4 -33z"/>
<path d="M2300 10400 l-5 -75 -30 0 c-26 0 -31 4 -37 35 l-6 35 1 -34 c1 -19
9 -38 18 -44 21 -13 69 -1 69 18 0 13 28 15 185 15 l185 0 -2 48 -1 47 -4 -42
c-3 -35 -8 -43 -24 -43 -13 0 -19 7 -19 23 0 12 -4 28 -9 36 -7 10 -9 4 -8
-19 2 -25 -3 -35 -15 -38 -15 -3 -18 4 -19 35 l-2 38 -6 -35 c-8 -48 -38 -53
-44 -8 l-4 33 -1 -32 c-2 -28 -6 -33 -27 -33 -21 0 -25 5 -25 30 0 35 -34 60
-54 39 -8 -9 -8 -10 1 -5 21 12 43 -5 43 -35 0 -28 -2 -29 -45 -29 l-45 0 -1
38 -2 37 -6 -35 c-4 -26 -12 -36 -28 -38 -20 -3 -22 2 -25 55 l-4 58 -4 -75z"/>
<path d="M8110 10415 c0 -48 -3 -55 -19 -55 -16 0 -21 8 -24 48 l-3 47 -2 -47
c-2 -35 -6 -48 -19 -51 -10 -3 3 -5 30 -6 l47 -1 0 60 c0 33 -2 60 -5 60 -3 0
-5 -25 -5 -55z"/>
<path d="M8153 10410 c0 -36 2 -50 4 -32 2 17 2 47 0 65 -2 17 -4 3 -4 -33z"/>
<path d="M8382 10418 c-2 -56 -3 -58 -29 -59 -18 -1 -22 -3 -10 -6 32 -8 12
-28 -32 -31 -49 -4 -71 10 -65 41 4 20 4 21 -5 2 -16 -36 4 -55 58 -55 38 0
52 5 70 26 18 21 21 35 18 82 l-3 57 -2 -57z"/>
<path d="M9370 10415 c0 -52 -1 -55 -25 -55 -21 0 -25 5 -25 30 0 19 -7 33
-19 40 -31 16 -51 2 -51 -36 0 -30 -3 -34 -25 -34 -21 0 -25 5 -25 30 0 19 -7
33 -21 40 -11 7 -23 9 -26 7 -2 -3 5 -8 16 -12 15 -4 21 -15 21 -35 0 -24 -5
-29 -27 -33 -16 -2 27 -5 95 -6 l122 -1 0 60 c0 33 -2 60 -5 60 -3 0 -5 -25
-5 -55z m-76 9 c10 -4 16 -18 16 -35 0 -24 -4 -29 -25 -29 -21 0 -25 5 -25 28
0 39 7 46 34 36z"/>
<path d="M9413 10410 c0 -36 2 -50 4 -32 2 17 2 47 0 65 -2 17 -4 3 -4 -33z"/>
<path d="M9852 10413 l-2 -63 85 1 85 1 -2 41 -1 42 -4 -37 c-3 -30 -9 -38
-24 -38 -15 0 -19 8 -20 38 l-2 37 -6 -35 c-8 -48 -38 -53 -44 -8 l-4 33 -1
-33 c-2 -29 -5 -33 -24 -30 -20 3 -24 11 -29 58 l-6 55 -1 -62z"/>
<path d="M10210 10450 c-11 -21 -7 -25 35 -32 13 -2 21 -12 23 -31 3 -26 2
-27 -47 -27 l-51 0 0 34 c0 40 -11 50 -44 42 -47 -12 -38 -86 10 -86 29 0 24
-17 -10 -30 -17 -7 -18 -9 -3 -9 9 -1 25 8 34 19 15 17 30 20 100 20 l83 0 -2
63 -2 62 -3 -57 c-4 -53 -6 -58 -28 -58 -19 0 -24 6 -27 33 -2 27 -8 33 -31
35 -22 3 -27 7 -22 23 8 25 -1 24 -15 -1z m-55 -55 c0 -23 -5 -31 -21 -33 -26
-4 -38 22 -23 49 16 30 44 20 44 -16z"/>
<path d="M10373 10410 c0 -36 2 -50 4 -32 2 17 2 47 0 65 -2 17 -4 3 -4 -33z"/>
<path d="M11150 10415 c0 -48 -3 -55 -19 -55 -15 0 -21 8 -24 38 -3 34 -4 34
-5 -10 -1 -27 -9 -53 -18 -62 -8 -9 -11 -16 -5 -16 6 0 15 9 21 20 6 12 21 20
35 20 24 0 25 3 25 60 0 33 -2 60 -5 60 -3 0 -5 -25 -5 -55z"/>
<path d="M11203 10410 c0 -36 2 -50 4 -32 2 17 2 47 0 65 -2 17 -4 3 -4 -33z"/>
<path d="M1808 10429 c-35 -20 -16 -79 25 -79 26 0 16 -23 -14 -31 -23 -7 -23
-7 -2 -8 13 -1 28 8 35 19 10 16 24 20 65 20 l53 0 0 35 c0 24 -6 37 -19 45
-30 15 -38 12 -13 -6 12 -8 22 -26 22 -40 0 -22 -4 -24 -50 -24 l-50 0 0 40
c0 43 -15 51 -52 29z m42 -35 c0 -31 -3 -35 -22 -32 -42 6 -33 67 10 68 7 0
12 -14 12 -36z"/>
<path d="M7943 10433 c-7 -2 -13 -20 -13 -39 0 -27 -4 -34 -19 -34 -15 0 -21
8 -24 38 -4 36 -4 36 -5 -7 -1 -25 -9 -52 -19 -63 -9 -10 -11 -18 -5 -18 6 0
16 9 22 20 9 17 21 20 72 20 l61 0 -6 37 c-8 46 -28 61 -64 46z m42 -19 c23
-23 15 -48 -18 -52 -24 -3 -27 0 -27 26 0 44 17 54 45 26z"/>
<path d="M8432 10428 c-7 -7 -12 -25 -12 -40 0 -24 5 -30 30 -35 35 -7 35 -24
-1 -34 -21 -6 -21 -7 -3 -8 32 -2 44 19 44 76 0 49 -2 53 -23 53 -13 0 -28 -5
-35 -12z m46 -36 c3 -30 1 -33 -20 -30 -23 3 -34 27 -24 54 11 28 41 11 44
-24z"/>
<path d="M8851 10398 c-1 -62 -9 -78 -36 -78 -29 0 -40 16 -37 55 l1 30 -9
-29 c-12 -39 3 -66 38 -66 38 0 52 17 52 62 0 31 4 38 20 38 16 0 20 -7 20
-30 l0 -30 80 0 80 0 -2 43 -1 42 -4 -37 c-5 -49 -32 -53 -34 -5 l-1 32 -7
-30 c-9 -43 -39 -45 -44 -3 l-4 33 -1 -32 c-2 -28 -6 -33 -27 -33 -23 0 -25 4
-26 43 0 23 -3 36 -6 30 -2 -7 -13 -13 -23 -13 -10 0 -21 6 -23 13 -3 6 -6 -9
-6 -35z"/>
<path d="M9100 10387 c0 -29 -6 -59 -12 -66 -11 -10 -10 -11 5 -6 13 6 17 19
17 66 0 32 -2 59 -5 59 -3 0 -5 -24 -5 -53z"/>
<path d="M9810 10400 c0 -40 0 -40 -39 -40 -43 0 -64 18 -55 46 5 16 4 16 -5
4 -14 -20 -14 -26 5 -44 9 -10 33 -16 60 -16 l44 0 0 45 c0 25 -2 45 -5 45 -3
0 -5 -18 -5 -40z"/>
<path d="M10062 10388 c-2 -42 -6 -60 -19 -67 -10 -6 -13 -10 -8 -11 28 0 36
18 32 76 l-3 59 -2 -57z"/>
<path d="M10683 10434 c-7 -3 -13 -10 -13 -16 0 -6 6 -6 15 2 23 19 47 4 43
-27 -3 -31 -34 -44 -50 -21 -8 10 -9 10 -5 -2 3 -13 35 -15 195 -17 l192 -3
-1 43 -2 42 -6 -35 c-4 -26 -12 -36 -28 -38 -19 -3 -22 2 -26 40 l-4 43 -1
-42 c-2 -36 -5 -43 -22 -43 -14 0 -20 7 -20 23 0 12 -4 28 -9 36 -7 10 -9 4
-8 -19 2 -25 -3 -35 -15 -38 -15 -3 -18 4 -19 35 l-2 38 -6 -35 c-8 -48 -38
-53 -44 -8 l-4 33 -1 -32 c-2 -28 -6 -33 -26 -33 -22 0 -25 5 -29 43 l-4 42
-1 -42 c-2 -35 -6 -43 -21 -43 -16 0 -20 8 -23 38 -3 37 -22 50 -55 36z"/>
<path d="M16880 10385 c0 -13 14 -15 98 -13 126 4 124 22 -3 26 -81 2 -95 0
-95 -13z"/>
<path d="M18372 10333 c-22 -9 -34 -41 -22 -63 10 -18 21 -20 138 -20 99 0
132 3 150 16 25 18 29 59 6 68 -19 7 -253 7 -272 -1z"/>
<path d="M17452 10290 c0 -19 2 -27 5 -17 2 9 2 25 0 35 -3 9 -5 1 -5 -18z"/>
<path d="M17581 10288 c-1 -40 -25 -54 -34 -20 -4 16 -5 16 -6 -1 -1 -23 27
-34 43 -16 8 9 10 25 5 44 -7 30 -7 29 -8 -7z"/>
<path d="M17872 10285 c0 -16 2 -22 5 -12 2 9 2 23 0 30 -3 6 -5 -1 -5 -18z"/>
<path d="M17273 10285 c-3 -9 -3 -19 1 -22 3 -4 6 2 7 13 0 18 1 18 9 -1 8
-19 9 -19 9 3 1 25 -17 30 -26 7z"/>
<path d="M17353 10285 c-3 -9 -3 -19 1 -22 3 -4 6 1 6 10 0 8 6 18 13 20 9 4
9 6 -1 6 -7 1 -15 -6 -19 -14z"/>
<path d="M17405 10290 c-3 -6 1 -7 9 -4 18 7 21 14 7 14 -6 0 -13 -4 -16 -10z"/>
<path d="M17486 10293 c6 -4 14 -15 17 -23 5 -11 6 -9 4 4 -1 11 -9 21 -17 23
-10 3 -11 2 -4 -4z"/>
<path d="M17640 10296 c0 -2 7 -7 16 -10 8 -3 12 -2 9 4 -6 10 -25 14 -25 6z"/>
<path d="M17823 10285 c-3 -9 -3 -19 1 -22 3 -4 6 1 6 10 0 8 6 18 13 20 9 4
9 6 -1 6 -7 1 -15 -6 -19 -14z"/>
<path d="M17741 10274 c0 -11 3 -14 6 -6 3 7 2 16 -1 19 -3 4 -6 -2 -5 -13z"/>
<path d="M16958 10273 c46 -2 118 -2 160 0 42 1 5 3 -83 3 -88 0 -123 -2 -77
-3z"/>
<path d="M17320 10270 c0 -5 5 -10 11 -10 5 0 7 5 4 10 -3 6 -8 10 -11 10 -2
0 -4 -4 -4 -10z"/>
<path d="M17426 10264 c-4 -9 -4 -19 -1 -22 2 -3 7 3 11 12 4 9 4 19 1 22 -2
3 -7 -3 -11 -12z"/>
<path d="M18018 10273 c45 -2 119 -2 165 0 45 1 8 3 -83 3 -91 0 -128 -2 -82
-3z"/>
<path d="M17648 10263 c7 -3 16 -2 19 1 4 3 -2 6 -13 5 -11 0 -14 -3 -6 -6z"/>
<path d="M17238 10243 c6 -2 18 -2 25 0 6 3 1 5 -13 5 -14 0 -19 -2 -12 -5z"/>
<path d="M12995 9086 c-129 -46 -229 -103 -310 -175 -44 -40 -89 -87 -100
-105 -11 -18 -37 -52 -57 -75 -21 -22 -38 -50 -38 -60 0 -10 -17 -34 -37 -53
-21 -19 -50 -49 -64 -69 -17 -22 -47 -43 -85 -58 -188 -77 -388 -191 -569
-326 -325 -241 -562 -529 -751 -910 -146 -296 -230 -579 -286 -960 -18 -124
-18 -639 1 -760 53 -355 142 -664 288 -1004 l66 -154 -27 -79 c-18 -49 -26
-87 -22 -103 7 -26 72 -81 151 -128 47 -28 47 -29 42 -70 -11 -85 -87 -515
-107 -607 -42 -188 -62 -315 -58 -376 7 -110 92 -250 188 -308 47 -29 191 -90
265 -112 70 -21 203 -23 305 -4 36 7 79 13 95 14 30 1 30 1 27 -49 -2 -27 -21
-104 -42 -170 -55 -170 -88 -303 -96 -385 l-7 -70 1672 0 1671 0 -1 48 c0 26
-4 69 -8 96 -6 34 -4 62 6 95 11 33 12 64 7 111 -4 36 -8 101 -8 145 l-1 80
-42 0 c-23 0 -41 5 -40 10 1 6 -3 9 -9 8 -49 -9 -282 6 -290 19 -3 4 -20 8
-37 8 -18 0 -52 6 -77 14 -90 27 -261 26 -340 -1 -30 -11 -115 -59 -187 -107
l-133 -88 0 -42 c0 -51 -12 -68 -68 -97 -39 -20 -52 -21 -135 -15 -51 4 -171
9 -267 12 -96 3 -176 7 -179 10 -17 17 56 38 114 34 100 -8 354 3 390 16 23 9
18 23 -11 30 -20 5 -24 11 -20 29 5 18 0 25 -24 35 -34 14 -35 30 -2 45 32 14
27 27 -23 57 -30 18 -43 32 -39 42 6 17 -30 40 -51 33 -7 -3 -17 -1 -23 5 -6
6 -8 2 -6 -14 5 -26 -35 -57 -103 -78 -21 -7 -85 -32 -143 -55 -58 -24 -122
-46 -142 -50 -37 -6 -38 -5 -38 23 0 36 -35 83 -55 75 -9 -3 -15 -18 -15 -39
0 -31 -2 -33 -32 -29 -18 2 -34 9 -36 15 -2 5 -8 8 -13 4 -19 -11 -8 8 17 31
14 13 42 29 62 36 21 6 59 23 86 36 51 26 221 87 271 97 17 4 51 0 78 -8 26
-8 47 -10 47 -5 0 5 4 8 8 7 17 -6 82 37 82 53 0 49 -113 67 -177 28 -38 -24
-348 -129 -379 -129 -28 0 -45 40 -49 114 l-4 56 77 36 c42 19 117 52 167 71
106 43 177 84 199 118 19 30 116 96 199 137 70 35 117 67 117 81 0 9 -31 6
-62 -8 -13 -5 -18 -3 -18 9 0 23 -51 21 -99 -4 -34 -17 -54 -19 -167 -15 -142
5 -226 18 -260 40 -12 8 -44 37 -72 65 -27 27 -56 50 -65 50 -16 0 -30 -26
-21 -41 9 -15 -13 -10 -30 7 -14 14 -19 14 -50 -1 -19 -9 -40 -23 -47 -31 -12
-14 -59 -20 -59 -6 0 4 19 15 41 24 24 10 39 23 37 30 -4 11 -66 27 -162 42
-24 3 -41 33 -41 76 l0 35 -115 1 c-63 0 -146 1 -184 2 l-69 2 7 218 c3 119 8
339 11 487 9 462 17 537 63 553 16 5 80 6 152 1 393 -24 628 -34 1062 -45 194
-5 261 -10 269 -20 8 -9 8 -91 0 -291 -6 -153 -13 -359 -16 -458 -3 -99 -8
-271 -11 -382 -6 -191 -5 -203 13 -209 10 -3 74 -32 143 -64 145 -68 165 -72
495 -95 241 -16 341 -19 515 -16 100 2 125 6 195 33 44 16 89 35 100 40 91 49
110 58 121 58 8 0 14 4 14 9 0 5 12 11 28 14 15 2 41 11 59 18 28 11 40 11 85
-4 28 -9 54 -14 57 -11 3 3 -31 40 -77 83 -45 42 -82 85 -82 94 0 9 -8 22 -18
29 -10 7 -24 28 -31 46 -7 17 -16 32 -20 32 -4 0 -13 15 -19 34 -7 19 -19 37
-27 40 -8 3 -15 12 -15 19 0 8 -7 20 -15 27 -8 7 -15 21 -15 31 0 11 -4 19 -9
19 -5 0 -12 12 -16 27 -8 35 8 47 88 63 95 19 216 59 274 91 29 16 54 25 57
21 7 -11 22 -98 25 -139 1 -7 5 -13 11 -13 6 0 7 23 3 61 -6 60 -6 61 18 57
13 -1 24 -8 24 -15 0 -6 3 -14 7 -18 3 -4 5 1 4 12 -2 10 1 24 7 31 5 6 8 12
6 13 -43 8 -53 8 -39 -1 12 -8 10 -10 -9 -10 -20 0 -22 2 -11 16 16 19 76 15
72 -4 -1 -8 2 -11 8 -7 6 3 8 10 5 15 -3 5 -1 11 5 15 6 4 8 11 4 16 -4 6 -11
6 -19 -1 -8 -7 -22 -10 -32 -7 -14 4 -13 5 5 6 13 0 20 6 17 11 -4 6 6 10 22
11 15 0 22 3 16 6 -18 7 9 33 34 33 15 0 16 2 3 10 -11 7 -11 10 -2 10 7 0 10
5 7 10 -3 6 2 10 12 11 16 0 16 1 -2 9 -17 7 -16 9 10 9 22 1 26 4 16 10 -11
7 -9 10 10 14 21 4 22 4 3 6 -26 1 -36 22 -22 42 8 11 9 10 4 -4 -4 -11 0 -20
11 -24 9 -4 19 -1 21 5 2 7 11 12 20 13 14 0 14 2 -1 8 -18 7 -18 8 -1 21 11
9 15 10 10 3 -4 -7 -2 -13 3 -13 11 0 15 15 11 35 -8 37 -8 45 -1 50 5 2 7 18
6 35 -1 16 1 28 5 25 6 -3 6 -60 0 -60 -1 0 -3 -8 -5 -17 -6 -31 11 -28 30 4
10 17 14 28 8 25 -5 -3 -9 5 -9 17 0 12 6 23 13 23 9 0 10 -4 2 -14 -6 -7 -7
-13 -2 -13 14 0 95 178 87 191 -4 7 -3 9 3 6 9 -6 36 57 33 77 -1 5 3 12 8 15
11 7 40 89 80 231 63 220 86 389 86 630 0 353 -71 635 -248 989 -124 246 -251
436 -484 720 -457 560 -982 1016 -1457 1268 l-130 69 -18 70 c-18 70 -23 80
-73 170 -33 59 -191 230 -248 269 -44 30 -104 54 -161 64 -22 4 -49 12 -60 18
-13 7 -57 9 -120 6 -81 -4 -117 -1 -186 16 -110 27 -205 26 -284 -3z m500
-716 c14 -5 35 -18 46 -29 15 -13 43 -22 88 -26 74 -8 158 -32 169 -49 16 -26
32 -84 32 -121 0 -33 8 -49 44 -89 28 -31 50 -68 59 -100 28 -95 59 -241 64
-303 3 -35 9 -63 13 -63 4 0 10 24 13 53 16 139 25 167 67 222 48 62 73 74
100 50 52 -47 60 -111 35 -276 -15 -101 -36 -156 -83 -217 -33 -43 -58 -56
-107 -57 l-40 0 -7 -85 c-5 -47 -19 -125 -33 -173 -27 -97 -30 -158 -16 -348
14 -181 15 -182 90 -257 36 -37 85 -80 108 -95 l43 -28 -26 -52 c-30 -58 -133
-165 -207 -214 -67 -44 -178 -88 -267 -107 -80 -16 -100 -11 -100 28 0 43 -12
66 -34 66 -11 0 -28 4 -36 10 -9 6 -20 5 -29 -3 -12 -10 -13 -9 -7 2 7 10 3
12 -13 6 -17 -5 -24 -2 -28 13 -2 11 -16 25 -29 33 -17 9 -24 19 -21 31 3 10
1 21 -4 24 -5 3 -6 10 -3 16 4 6 1 14 -6 18 -10 6 -10 16 4 49 11 30 13 47 7
60 -9 17 -2 65 16 111 3 8 7 20 7 25 4 32 20 56 42 61 13 3 24 10 24 16 0 5
-8 7 -17 4 -26 -8 -133 -8 -170 0 -18 3 -38 13 -45 22 -11 14 -10 15 7 8 11
-4 16 -4 13 0 -4 3 -1 18 6 33 7 14 11 34 8 44 -6 29 17 78 57 120 35 37 35
39 17 53 -23 16 -46 18 -46 4 0 -5 -7 -10 -15 -10 -8 0 -15 3 -15 8 0 11 16
34 24 33 22 -2 35 12 26 30 -6 10 -17 16 -24 13 -19 -7 -58 14 -51 27 4 5 17
6 31 3 14 -4 24 -2 24 5 0 6 8 11 18 11 10 0 26 6 35 13 15 10 4 12 -60 12
-66 0 -78 3 -81 18 -3 14 4 17 42 17 39 0 46 3 46 20 0 14 -12 25 -39 36 -26
10 -41 23 -45 40 -8 29 9 64 29 64 20 0 28 -19 15 -35 -16 -19 -5 -45 18 -45
10 0 27 9 38 21 22 25 11 48 -32 63 -85 31 -104 72 -81 172 8 33 11 68 6 79
-4 11 -8 55 -8 99 -1 89 -16 151 -43 182 -10 11 -18 24 -18 29 0 14 -68 75
-84 75 -8 0 -19 8 -25 17 -5 9 -29 22 -53 28 -23 5 -42 13 -40 18 1 4 3 6 5 5
2 -2 18 14 36 34 18 21 38 35 44 31 6 -4 8 0 4 10 -3 10 -2 17 3 17 6 0 10 6
10 14 0 7 8 31 17 52 9 22 18 45 19 53 2 8 10 18 18 23 9 5 16 18 16 30 0 16
5 19 21 15 15 -4 22 1 29 18 18 47 100 132 123 127 9 -2 14 -8 11 -14 -4 -7
-2 -8 5 -4 6 4 9 11 6 16 -6 10 16 19 64 26 20 3 38 10 39 15 5 12 54 12 87
-1z m-265 -50 c0 -5 -4 -10 -10 -10 -5 0 -10 5 -10 10 0 6 5 10 10 10 6 0 10
-4 10 -10z m-335 -1005 c7 -13 19 -19 34 -17 22 3 23 1 17 -32 -4 -19 -18 -60
-31 -91 -32 -72 -31 -91 6 -149 47 -74 21 -109 -27 -37 -20 30 -24 47 -19 69
8 39 -18 102 -42 102 -12 0 -19 7 -19 20 0 11 4 20 8 20 4 0 8 9 8 21 0 11 -4
17 -10 14 -6 -4 -10 7 -10 25 0 23 5 33 20 37 11 3 20 10 20 15 0 5 5 6 10 3
6 -3 10 -2 10 4 0 5 -6 12 -12 15 -7 3 -4 4 7 3 11 -1 25 -11 30 -22z m370
-1175 c3 -5 14 -10 23 -10 9 0 36 -20 60 -45 24 -25 48 -43 53 -39 5 3 8 2 7
-3 -2 -4 7 -18 20 -31 12 -12 20 -27 17 -32 -13 -22 -184 -5 -199 19 -5 8 -8
99 -5 134 3 19 14 23 24 7z m1755 -944 c0 -8 -11 -13 -27 -13 -25 0 -26 0 -8
13 10 8 22 14 27 14 4 0 8 -6 8 -14z m-105 -41 c-51 -22 -82 -26 -40 -5 22 11
47 19 55 19 8 0 2 -6 -15 -14z m-90 -35 c-3 -5 -11 -10 -16 -10 -6 0 -7 5 -4
10 3 6 11 10 16 10 6 0 7 -4 4 -10z m145 -564 c0 -3 -4 -8 -10 -11 -5 -3 -10
-1 -10 4 0 6 5 11 10 11 6 0 10 -2 10 -4z m-60 -26 c-33 -23 -50 -30 -50 -22
0 5 10 14 23 20 28 14 47 15 27 2z m1321 -83 c-6 -8 -7 -18 -3 -22 4 -5 1 -5
-6 -1 -10 6 -10 11 -1 22 6 8 14 14 16 14 3 0 0 -6 -6 -13z m-25 -62 c-1 -8
-5 -17 -8 -21 -5 -4 -4 16 1 34 3 9 9 -1 7 -13z m-99 -90 c0 -8 -4 -12 -9 -9
-5 3 -6 10 -3 15 9 13 12 11 12 -6z m-12 -64 c-2 -9 -4 -17 -5 -18 -2 -2 -3
-6 -4 -10 -1 -5 -6 -16 -12 -27 -10 -16 -12 -16 -17 -2 -4 9 -2 15 5 13 7 -1
12 3 13 10 0 6 3 15 7 19 4 4 3 12 -2 19 -7 8 -5 12 4 12 8 0 12 -7 11 -16z
m-1723 -203 c12 -17 17 -28 10 -25 -6 4 -21 22 -34 39 -12 17 -17 28 -10 25 6
-4 21 -22 34 -39z m83 -128 c3 -5 1 -10 -4 -10 -6 0 -11 5 -11 10 0 6 2 10 4
10 3 0 8 -4 11 -10z m-20 -50 c3 -5 1 -10 -4 -10 -6 0 -11 5 -11 10 0 6 2 10
4 10 3 0 8 -4 11 -10z m58 -93 c4 3 7 -1 7 -10 0 -22 -26 -22 -33 1 -2 9 -8
26 -12 37 -4 13 0 10 12 -8 11 -15 23 -24 26 -20z m37 -68 c0 -5 -4 -8 -9 -5
-5 4 -11 1 -13 -6 -3 -8 -7 -6 -11 5 -5 12 -1 17 13 17 11 0 20 -5 20 -11z
m46 -157 c-5 -5 -37 96 -35 112 1 6 10 -16 20 -48 11 -33 17 -61 15 -64z
m-152 63 c-3 -8 -12 -11 -20 -8 -15 5 -18 16 -8 26 11 10 33 -4 28 -18z m26
-29 c0 -3 -4 -8 -10 -11 -5 -3 -10 -1 -10 4 0 6 5 11 10 11 6 0 10 -2 10 -4z
m-40 -76 c0 -5 -10 -10 -22 -10 -19 0 -20 2 -8 10 19 13 30 13 30 0z m257 -22
c-3 -8 -6 -5 -6 6 -1 11 2 17 5 13 3 -3 4 -12 1 -19z m-122 2 c3 -5 1 -10 -4
-10 -6 0 -11 5 -11 10 0 6 2 10 4 10 3 0 8 -4 11 -10z m-55 -20 c0 -5 -5 -10
-11 -10 -5 0 -7 5 -4 10 3 6 8 10 11 10 2 0 4 -4 4 -10z m-1984 -106 c13 -11
15 -17 7 -20 -10 -4 -9 -13 3 -37 26 -52 55 -78 78 -71 16 4 18 3 6 -5 -12 -8
-10 -11 10 -19 60 -23 68 -23 79 -5 9 15 12 15 20 4 6 -10 13 -11 30 -2 17 10
21 9 21 -4 0 -9 5 -13 10 -10 6 3 10 15 10 26 0 21 10 25 27 8 6 -6 31 -12 55
-12 40 -1 74 -18 62 -30 -4 -3 1 -15 9 -27 15 -22 35 -11 21 11 -5 8 10 10 52
6 32 -4 67 -6 76 -7 12 0 15 -5 11 -17 -4 -10 -2 -14 4 -10 6 4 23 3 37 -3 15
-5 41 -10 59 -11 18 -1 42 -6 54 -12 16 -7 26 -7 38 3 10 8 15 9 15 1 0 -6 10
-11 23 -11 12 0 29 -5 37 -10 19 -12 -46 -13 -107 -1 -40 8 -56 1 -33 -14 17
-10 11 -25 -10 -25 -11 0 -20 -7 -20 -15 0 -8 5 -15 10 -15 21 0 9 -20 -12
-21 -23 -1 -14 -3 135 -32 85 -16 116 -32 76 -41 -92 -20 -132 -25 -140 -20
-5 3 -9 -1 -9 -9 0 -9 -12 -14 -32 -15 -18 -1 -63 -4 -99 -6 -51 -4 -70 -2
-79 9 -7 8 -16 13 -20 10 -4 -2 -13 7 -20 20 -7 13 -17 22 -21 19 -5 -3 -15
11 -23 30 -12 30 -18 34 -46 32 -17 -1 -33 1 -36 6 -3 4 -13 8 -23 8 -10 0
-44 13 -77 29 -32 15 -73 29 -90 30 -18 0 -51 8 -74 16 -43 15 -80 20 -80 9 0
-3 7 -12 15 -21 9 -8 13 -18 10 -22 -4 -3 -20 10 -36 29 -15 19 -29 29 -29 22
0 -7 -5 -10 -10 -7 -6 4 -8 15 -5 25 3 10 1 27 -4 37 -17 29 -43 95 -51 129
-8 33 2 53 35 72 26 15 28 15 51 -4z m2749 -14 c-2 -11 0 -22 6 -25 9 -6 13 7
10 32 -1 6 3 14 9 18 6 4 7 -1 3 -11 -4 -10 -2 -15 4 -11 5 3 10 0 10 -8 0 -8
-4 -12 -9 -9 -12 8 -10 -10 4 -24 9 -9 9 -12 0 -12 -7 0 -12 6 -12 13 0 8 -3
7 -10 -3 -6 -9 -5 -17 1 -21 7 -4 4 -9 -5 -12 -9 -4 -15 -2 -13 2 1 5 -2 9 -8
10 -5 1 -10 -3 -10 -8 0 -5 -2 -12 -5 -15 -3 -3 -6 10 -6 29 0 32 1 33 18 18
17 -15 27 -5 11 11 -10 10 -12 56 -2 50 4 -2 6 -13 4 -24z m-68 -35 c0 -8 -4
-12 -9 -9 -5 3 -6 10 -3 15 9 13 12 11 12 -6z m-2636 -17 c11 -21 11 -22 -4
-9 -10 7 -17 17 -17 22 0 15 9 10 21 -13z m2655 -23 c-1 -13 -4 -27 -7 -30 -5
-4 -4 41 0 53 4 10 8 -2 7 -23z m-29 0 c0 -8 -4 -12 -9 -9 -5 3 -6 10 -3 15 9
13 12 11 12 -6z m-2668 -230 c16 -14 31 -38 33 -52 4 -39 109 -92 303 -154 88
-28 171 -56 185 -61 l25 -11 -33 -14 c-18 -7 -53 -16 -77 -20 -40 -5 -51 -1
-117 39 -40 25 -94 52 -120 62 -26 10 -64 29 -85 44 -35 24 -149 49 -137 30 3
-4 -1 -8 -9 -8 -8 0 -17 9 -20 21 -3 12 -10 18 -16 15 -5 -4 -15 3 -21 15 -10
17 -8 25 10 44 12 13 19 29 15 35 -10 16 2 40 19 40 8 0 28 -11 45 -25z m741
-19 c0 -3 -4 -8 -10 -11 -5 -3 -10 -1 -10 4 0 6 5 11 10 11 6 0 10 -2 10 -4z
m-1365 -206 c3 -5 1 -10 -4 -10 -6 0 -11 5 -11 10 0 6 2 10 4 10 3 0 8 -4 11
-10z m565 -70 c0 -5 -4 -10 -10 -10 -5 0 -10 5 -10 10 0 6 5 10 10 10 6 0 10
-4 10 -10z m-12 -230 c5 -13 3 -13 -11 -1 -26 21 -23 -11 3 -34 14 -13 20 -14
20 -5 0 9 7 7 21 -6 22 -19 22 -19 10 4 -6 12 -8 22 -4 22 13 -1 49 -34 56
-52 3 -10 15 -18 26 -18 11 0 23 -4 26 -10 3 -5 14 -10 24 -10 10 0 26 -11 35
-25 15 -22 15 -25 1 -25 -9 0 -28 12 -43 27 -22 22 -38 28 -88 31 -77 5 -114
34 -114 88 0 28 4 35 17 32 9 -2 19 -10 21 -18z m259 -76 c-3 -4 -14 -3 -24 0
-15 6 -15 8 -3 16 16 10 39 -4 27 -16z m925 1 c45 -8 49 -22 11 -31 -16 -4
-48 -14 -73 -24 -75 -29 -225 -61 -307 -66 -176 -10 -178 -10 -181 -34 -3 -17
-8 -21 -25 -16 -12 3 -25 6 -29 6 -18 0 -6 20 11 20 11 0 26 7 34 15 16 15 41
23 103 29 23 2 50 8 60 14 11 5 47 15 82 22 34 7 62 16 62 21 0 12 114 45 167
48 26 1 64 -1 85 -4z m35 -90 c2 -6 -9 -15 -24 -22 -36 -16 -141 -24 -149 -12
-7 12 17 36 42 41 35 8 127 3 131 -7z m-841 -43 c-4 -3 -14 2 -24 12 -16 18
-16 18 6 6 13 -6 21 -14 18 -18z m184 1 c0 -10 -6 -13 -16 -9 -8 3 -12 2 -9
-4 7 -12 -95 -14 -110 -2 -5 4 -11 13 -13 21 -2 10 9 12 57 6 39 -4 61 -3 66
4 8 15 25 4 25 -16z m175 -33 l30 -20 -35 0 c-57 0 -82 10 -69 26 16 19 39 17
74 -6z"/>
<path d="M13056 8042 c-3 -6 -1 -14 5 -17 15 -10 25 3 12 16 -7 7 -13 7 -17 1z"/>
<path d="M13656 7991 c-3 -5 -32 -12 -63 -16 -80 -9 -191 -34 -233 -53 -59
-25 -111 -93 -55 -72 16 6 26 6 31 -1 3 -6 10 -6 17 -1 7 5 32 12 57 16 25 4
83 20 130 37 87 30 145 36 196 20 16 -5 42 -12 59 -16 l29 -6 -19 21 c-17 19
-124 80 -139 80 -3 0 -7 -4 -10 -9z"/>
<path d="M14174 7863 c4 -16 9 -47 13 -70 7 -50 23 -48 23 3 0 33 -24 94 -36
94 -4 0 -3 -12 0 -27z"/>
<path d="M13451 7831 c-46 -19 -91 -64 -91 -92 0 -30 46 -104 76 -121 39 -23
142 -28 154 -8 7 11 4 18 -10 24 -11 5 -20 13 -20 18 0 33 119 99 164 91 14
-3 26 -1 26 4 0 16 -54 41 -103 48 -61 9 -71 25 -15 25 26 0 56 -8 76 -20 19
-12 31 -16 27 -10 -13 21 -63 38 -144 49 -100 13 -86 14 -140 -8z m209 -75 c0
-8 -7 -16 -15 -20 -10 -4 -15 1 -15 14 0 11 7 20 15 20 8 0 15 -6 15 -14z
m-160 -26 c0 -5 -4 -10 -9 -10 -6 0 -13 5 -16 10 -3 6 1 10 9 10 9 0 16 -4 16
-10z"/>
<path d="M14060 7720 c0 -6 16 -20 35 -31 40 -24 44 -38 15 -46 -11 -3 -20
-13 -20 -23 0 -9 -10 -29 -21 -44 -12 -15 -18 -30 -14 -34 3 -4 14 3 23 15 9
11 26 24 37 27 31 9 47 41 35 71 -5 14 -13 25 -18 25 -5 0 -14 11 -20 25 -11
24 -52 36 -52 15z"/>
<path d="M13520 7397 c0 -17 67 -105 100 -132 14 -11 35 -30 48 -42 13 -13 25
-23 27 -23 14 0 -1 25 -55 99 -59 78 -120 129 -120 98z"/>
<path d="M13345 7290 c-4 -6 7 -10 24 -10 17 0 31 5 31 10 0 6 -11 10 -24 10
-14 0 -28 -4 -31 -10z"/>
<path d="M13601 7147 c-6 -15 -20 -26 -38 -30 -19 -4 -32 -16 -42 -37 -7 -17
-11 -33 -8 -36 3 -3 23 6 46 20 47 30 54 31 71 11 20 -24 40 -18 40 13 0 29
-11 48 -42 71 -15 11 -19 10 -27 -12z"/>
<path d="M13475 7100 c-8 -13 15 -13 35 0 12 8 11 10 -7 10 -12 0 -25 -4 -28
-10z"/>
<path d="M13332 7087 c-12 -6 -22 -14 -22 -19 0 -14 38 -9 70 10 l30 19 -28 0
c-15 0 -38 -5 -50 -10z"/>
<path d="M13420 7079 c0 -5 5 -7 10 -4 6 3 10 8 10 11 0 2 -4 4 -10 4 -5 0
-10 -5 -10 -11z"/>
<path d="M13438 7033 c7 -3 16 -2 19 1 4 3 -2 6 -13 5 -11 0 -14 -3 -6 -6z"/>
<path d="M12810 3169 c0 -5 11 -9 25 -9 14 0 25 4 25 9 0 5 -11 9 -25 9 -14 0
-25 -4 -25 -9z"/>
<path d="M12890 3159 c0 -5 5 -7 10 -4 6 3 10 8 10 11 0 2 -4 4 -10 4 -5 0
-10 -5 -10 -11z"/>
<path d="M12818 3133 c6 -2 18 -2 25 0 6 3 1 5 -13 5 -14 0 -19 -2 -12 -5z"/>
<path d="M12865 3130 c3 -5 10 -10 16 -10 5 0 9 5 9 10 0 6 -7 10 -16 10 -8 0
-12 -4 -9 -10z"/>
<path d="M13100 3080 c0 -5 7 -10 16 -10 8 0 12 5 9 10 -3 6 -10 10 -16 10 -5
0 -9 -4 -9 -10z"/>
<path d="M8760 6555 c0 -8 9 -15 20 -15 11 0 20 7 20 15 0 8 -9 15 -20 15 -11
0 -20 -7 -20 -15z"/>
<path d="M2248 6523 c12 -2 32 -2 45 0 12 2 2 4 -23 4 -25 0 -35 -2 -22 -4z"/>
<path d="M2110 6380 l0 -140 25 0 25 0 0 140 0 140 -25 0 -25 0 0 -140z"/>
<path d="M2530 6501 c0 -17 18 -31 41 -31 5 0 9 11 9 25 0 20 -5 25 -25 25
-18 0 -25 -5 -25 -19z"/>
<path d="M3050 6380 l0 -140 300 0 300 0 0 140 0 140 -25 0 -25 0 0 -119 0
-119 -45 0 -45 0 0 79 c0 77 -1 79 -25 79 -23 0 -24 -3 -27 -77 l-3 -78 -47
-3 -48 -3 0 46 c0 26 -5 55 -10 66 -21 38 -89 58 -146 43 -15 -4 -20 -11 -17
-25 5 -16 11 -18 39 -13 54 10 84 -15 84 -71 l0 -45 -105 0 -105 0 0 120 0
120 -25 0 -25 0 0 -140z"/>
<path d="M3460 6501 c0 -17 18 -31 41 -31 5 0 9 11 9 25 0 20 -5 25 -25 25
-18 0 -25 -5 -25 -19z"/>
<path d="M3730 6380 l0 -140 26 0 c22 0 25 3 20 23 -3 12 -6 75 -6 140 0 110
-1 117 -20 117 -19 0 -20 -7 -20 -140z"/>
<path d="M4110 6500 c0 -13 7 -20 20 -20 13 0 20 7 20 20 0 13 -7 20 -20 20
-13 0 -20 -7 -20 -20z"/>
<path d="M4180 6500 c0 -15 7 -20 25 -20 18 0 25 5 25 20 0 15 -7 20 -25 20
-18 0 -25 -5 -25 -20z"/>
<path d="M4380 6500 c0 -15 7 -20 25 -20 18 0 25 5 25 20 0 15 -7 20 -25 20
-18 0 -25 -5 -25 -20z"/>
<path d="M4450 6500 c0 -15 7 -20 25 -20 18 0 25 5 25 20 0 15 -7 20 -25 20
-18 0 -25 -5 -25 -20z"/>
<path d="M5990 6400 l0 -120 -50 0 -50 0 0 80 c0 78 -1 80 -25 80 -23 0 -24
-3 -27 -77 l-3 -78 -55 0 -55 0 -3 78 -3 77 -55 0 c-100 0 -137 -42 -120 -135
8 -40 45 -65 96 -65 23 0 30 -4 30 -19 0 -27 -14 -34 -66 -33 -37 1 -44 -2
-44 -18 0 -22 53 -37 92 -25 35 11 68 46 68 72 l0 23 160 0 160 0 0 140 0 140
-25 0 -25 0 0 -120z m-320 -60 c0 -54 -2 -60 -21 -60 -41 0 -59 18 -59 60 0
42 17 59 58 60 20 0 22 -4 22 -60z"/>
<path d="M6120 6380 l0 -140 25 0 25 0 0 140 0 140 -25 0 -25 0 0 -140z"/>
<path d="M6560 6400 l0 -120 -52 0 c-110 0 -147 25 -133 89 5 25 3 29 -18 33
-22 4 -26 1 -31 -34 -8 -51 10 -88 54 -111 32 -16 78 -17 568 -16 l532 1 0 99
c0 99 0 99 -25 99 -25 0 -25 -1 -25 -80 l0 -80 -70 0 c-38 0 -70 2 -70 5 0 3
9 18 20 33 11 15 23 41 26 59 5 25 2 33 -15 43 -36 19 -113 23 -156 8 -37 -12
-40 -16 -38 -47 1 -19 11 -46 22 -62 12 -15 21 -31 21 -34 0 -3 -28 -5 -62 -3
l-63 3 -3 118 c-2 108 -4 117 -22 117 -18 0 -20 -9 -22 -117 l-3 -118 -46 -3
-46 -3 -5 57 c-6 75 -36 104 -108 104 -67 0 -80 -15 -80 -96 l0 -65 -47 3 -48
3 -3 118 -3 117 -24 0 -25 0 0 -120z m275 -16 c11 -11 15 -30 13 -58 -3 -41
-3 -41 -45 -44 l-43 -3 0 54 c0 29 3 57 7 60 12 13 51 7 68 -9z m424 10 c39
-8 39 -25 1 -66 l-30 -33 -30 33 c-36 39 -38 59 -7 65 12 2 25 5 28 6 4 0 21
-2 38 -5z"/>
<path d="M7400 6500 c0 -15 7 -20 25 -20 18 0 25 5 25 20 0 15 -7 20 -25 20
-18 0 -25 -5 -25 -20z"/>
<path d="M7470 6500 c0 -15 7 -20 25 -20 18 0 25 5 25 20 0 15 -7 20 -25 20
-18 0 -25 -5 -25 -20z"/>
<path d="M8020 6501 c0 -17 18 -31 41 -31 5 0 9 11 9 25 0 20 -5 25 -25 25
-18 0 -25 -5 -25 -19z"/>
<path d="M8720 6500 c0 -15 7 -20 25 -20 18 0 25 5 25 20 0 15 -7 20 -25 20
-18 0 -25 -5 -25 -20z"/>
<path d="M8800 6500 c0 -13 7 -20 20 -20 13 0 20 7 20 20 0 13 -7 20 -20 20
-13 0 -20 -7 -20 -20z"/>
<path d="M8900 6500 c0 -13 7 -20 20 -20 13 0 20 7 20 20 0 13 -7 20 -20 20
-13 0 -20 -7 -20 -20z"/>
<path d="M8970 6500 c0 -15 7 -20 25 -20 18 0 25 5 25 20 0 15 -7 20 -25 20
-18 0 -25 -5 -25 -20z"/>
<path d="M9450 6380 l0 -140 26 0 c22 0 25 3 20 23 -3 12 -6 75 -6 140 0 110
-1 117 -20 117 -19 0 -20 -7 -20 -140z"/>
<path d="M2248 6483 c12 -2 32 -2 45 0 12 2 2 4 -23 4 -25 0 -35 -2 -22 -4z"/>
<path d="M6435 6440 c-23 -44 -19 -50 30 -50 33 0 45 4 45 15 0 9 -9 15 -25
15 -14 0 -25 5 -25 10 0 6 11 15 25 20 33 13 32 20 -5 20 -23 0 -33 -7 -45
-30z"/>
<path d="M2240 6423 c0 -14 10 -21 42 -29 38 -8 43 -13 51 -47 14 -57 5 -67
-53 -67 -43 0 -50 -3 -50 -20 0 -19 7 -20 200 -20 193 0 200 1 200 20 0 17 -7
20 -43 20 -49 0 -67 13 -67 50 0 39 22 62 61 64 27 1 34 6 34 21 0 17 -7 20
-43 19 -64 -1 -97 -37 -97 -105 l0 -50 -45 3 -45 3 -5 52 c-7 67 -32 93 -94
100 -41 5 -46 3 -46 -14z"/>
<path d="M2819 6434 c-11 -3 -15 -12 -12 -25 5 -17 11 -20 38 -15 18 4 44 2
59 -4 23 -8 26 -15 26 -60 l0 -50 -47 0 c-56 -1 -79 -15 -94 -58 -15 -44 5
-82 53 -100 49 -19 108 -9 108 19 0 16 -6 19 -46 17 -58 -2 -83 19 -66 57 11
23 17 25 77 25 l65 0 0 73 c0 65 -3 76 -25 97 -24 23 -97 36 -136 24z"/>
<path d="M4094 6417 c-23 -20 -28 -32 -28 -75 -1 -65 22 -92 88 -99 36 -4 46
-10 46 -24 0 -28 -32 -39 -114 -39 -100 0 -110 10 -100 97 6 64 6 65 -17 61
-20 -2 -25 -11 -31 -53 -10 -66 -2 -100 29 -125 22 -17 41 -20 125 -20 97 0
100 1 129 29 16 16 29 39 29 50 0 21 3 21 260 21 l260 0 0 73 c0 64 -3 76 -24
96 -42 40 -146 41 -146 2 0 -16 7 -19 51 -18 60 2 82 -18 77 -73 l-3 -35 -100
0 -100 0 -3 79 -3 78 -71 -4 c-89 -5 -108 -23 -108 -104 l0 -54 -45 0 -45 0 0
80 0 80 -64 0 c-54 0 -70 -4 -92 -23z m101 -77 l0 -55 -34 2 c-38 1 -51 15
-51 55 0 35 26 60 59 56 25 -3 26 -6 26 -58z m275 0 c0 -54 -2 -60 -21 -60
-41 0 -59 18 -59 60 0 42 17 59 58 60 20 0 22 -4 22 -60z"/>
<path d="M4873 6430 c-30 -12 -43 -41 -43 -93 0 -61 23 -88 83 -94 37 -4 47
-10 47 -24 0 -25 -15 -32 -65 -31 -34 1 -44 -3 -48 -18 -4 -16 2 -21 29 -26
44 -8 83 2 112 28 20 20 22 30 22 145 l0 123 -57 -1 c-32 0 -68 -4 -80 -9z
m87 -90 c0 -54 -2 -60 -21 -60 -41 0 -59 18 -59 60 0 42 17 59 58 60 20 0 22
-4 22 -60z"/>
<path d="M5317 6428 c-14 -11 -18 -28 -18 -87 0 -48 -6 -82 -15 -97 -10 -14
-14 -41 -12 -76 3 -46 6 -53 26 -56 20 -3 22 0 22 50 0 30 5 59 12 66 7 7 40
12 80 12 l68 0 0 74 c0 97 -15 117 -91 123 -36 3 -60 0 -72 -9z m104 -49 c14
-14 19 -30 17 -57 -3 -35 -5 -37 -42 -40 -43 -4 -56 7 -56 51 0 63 40 87 81
46z"/>
<path d="M7973 6416 c-24 -21 -28 -32 -28 -75 0 -47 -2 -51 -25 -52 -14 -1
-31 -1 -38 0 -15 2 -42 -17 -42 -30 0 -5 18 -12 40 -15 22 -4 40 -12 40 -18 0
-28 -26 -36 -115 -36 -111 0 -131 13 -120 78 6 36 4 40 -18 44 -23 4 -25 1
-31 -39 -12 -92 39 -133 169 -133 98 0 139 17 156 64 l13 36 78 0 78 0 0 100
0 100 -64 0 c-54 0 -70 -4 -93 -24z m102 -76 l0 -55 -34 2 c-38 1 -51 15 -51
55 0 35 26 60 59 56 25 -3 26 -6 26 -58z"/>
<path d="M8310 6328 c0 -120 -4 -134 -35 -139 -12 -3 -21 -14 -23 -27 -3 -18
1 -22 23 -22 32 0 85 49 85 79 0 21 2 21 423 23 232 1 460 0 506 -1 l83 -3 -3
95 c-2 52 -6 98 -9 101 -3 3 -15 3 -25 0 -18 -4 -20 -12 -17 -79 3 -69 2 -75
-16 -75 -46 0 -52 9 -52 76 0 62 -1 64 -25 64 -24 0 -25 -2 -25 -64 0 -49 -4
-65 -16 -70 -38 -15 -44 -8 -44 54 0 57 -1 60 -25 60 -22 0 -24 -4 -27 -57
l-3 -58 -52 -3 -53 -3 0 80 c0 80 0 81 -25 81 -25 0 -25 -1 -25 -80 l0 -80
-60 0 -60 0 0 80 c0 78 -1 80 -25 80 -23 0 -24 -3 -27 -77 l-3 -78 -55 0 -55
0 -5 57 c-7 79 -23 93 -105 93 -35 0 -66 -3 -70 -6 -3 -4 -8 -38 -10 -75 l-4
-69 -45 -3 -46 -3 0 80 c0 80 0 81 -25 81 l-25 0 0 -112z m261 62 c15 -8 19
-22 19 -61 l0 -50 -42 3 c-41 3 -43 5 -46 37 -7 73 17 98 69 71z"/>
<path d="M5186 6328 c-3 -7 -9 -28 -15 -47 -14 -44 -15 -41 14 -41 27 0 30 5
39 63 4 32 2 37 -15 37 -11 0 -21 -6 -23 -12z"/>
<path d="M3233 6184 c-6 -16 12 -34 35 -34 6 0 12 11 12 25 0 18 -5 25 -20 25
-11 0 -23 -7 -27 -16z"/>
<path d="M5790 6180 c0 -15 7 -20 25 -20 18 0 25 5 25 20 0 15 -7 20 -25 20
-18 0 -25 -5 -25 -20z"/>
<path d="M5860 6180 c0 -15 7 -20 25 -20 18 0 25 5 25 20 0 15 -7 20 -25 20
-18 0 -25 -5 -25 -20z"/>
<path d="M7740 6080 c0 -15 7 -20 25 -20 18 0 25 5 25 20 0 15 -7 20 -25 20
-18 0 -25 -5 -25 -20z"/>
<path d="M7810 6080 c0 -15 7 -20 25 -20 18 0 25 5 25 20 0 15 -7 20 -25 20
-18 0 -25 -5 -25 -20z"/>
<path d="M5680 5835 c0 -8 8 -15 18 -14 10 0 12 3 4 6 -6 2 -10 9 -6 14 3 5 0
9 -5 9 -6 0 -11 -7 -11 -15z"/>
<path d="M8060 5795 c0 -8 8 -15 18 -14 10 0 12 3 4 6 -6 2 -10 9 -6 14 3 5 0
9 -5 9 -6 0 -11 -7 -11 -15z"/>
<path d="M1592 5738 l-2 -68 -30 0 c-29 0 -30 2 -30 45 0 43 -1 45 -28 45 -35
0 -52 -16 -52 -50 0 -45 14 -50 152 -50 l128 0 0 34 c0 42 -22 67 -58 65 l-27
-2 27 -4 c33 -5 50 -25 46 -55 -3 -21 -9 -23 -60 -26 l-57 -3 -4 68 -3 68 -2
-67z m-72 -28 c0 -32 -4 -40 -18 -40 -10 0 -23 5 -30 12 -25 25 -6 68 30 68
14 0 18 -8 18 -40z"/>
<path d="M2530 5734 l0 -65 -27 3 c-25 3 -29 8 -34 48 l-6 45 -1 -47 c-2 -44
-4 -48 -27 -48 -23 0 -25 4 -25 45 0 43 -1 45 -28 45 -35 0 -52 -16 -52 -50 0
-32 17 -50 48 -50 33 0 23 -23 -14 -31 l-29 -7 33 -1 c26 -1 35 4 39 19 5 17
14 20 69 20 l64 0 0 70 c0 39 -2 70 -5 70 -3 0 -5 -30 -5 -66z m-130 -24 c0
-41 -9 -47 -44 -34 -19 7 -22 60 -3 67 36 15 47 7 47 -33z"/>
<path d="M2593 5730 c0 -41 2 -58 4 -37 2 20 2 54 0 75 -2 20 -4 3 -4 -38z"/>
<path d="M2892 5737 c-2 -68 -2 -68 -29 -65 -25 3 -28 7 -31 46 -3 39 -5 42
-33 42 -22 0 -32 -6 -39 -25 -14 -38 3 -75 35 -75 20 0 26 -4 23 -17 -2 -13
-15 -19 -46 -21 -57 -4 -75 11 -67 57 4 26 3 32 -4 21 -15 -22 -13 -66 3 -79
8 -7 37 -11 68 -9 46 3 53 6 56 26 3 22 6 22 148 22 l144 0 -2 53 -2 52 -3
-48 c-4 -43 -7 -48 -26 -45 -16 2 -23 12 -27 37 -7 47 -32 61 -70 39 l-29 -16
-4 36 c-2 22 -4 9 -5 -30 -2 -65 -3 -68 -27 -68 -23 0 -24 3 -28 68 l-3 67 -2
-68z m-72 -27 c0 -33 -3 -40 -20 -40 -27 0 -44 34 -30 60 6 11 20 20 30 20 17
0 20 -7 20 -40z m214 34 c10 -4 16 -18 16 -40 0 -34 -1 -34 -45 -34 -38 0 -45
3 -45 19 0 11 12 29 26 40 30 24 27 23 48 15z"/>
<path d="M3173 5730 c0 -41 2 -58 4 -37 2 20 2 54 0 75 -2 20 -4 3 -4 -38z"/>
<path d="M3880 5734 l0 -65 -27 3 c-23 2 -29 9 -31 33 -5 41 -20 57 -51 53
-23 -3 -26 -8 -29 -45 -3 -43 -3 -43 -43 -43 -39 0 -40 0 -25 22 9 12 16 30
16 40 0 21 -38 33 -70 23 -22 -7 -23 -24 -5 -67 6 -15 2 -18 -28 -18 -36 0
-36 0 -40 48 -3 43 -4 42 -5 -15 -2 -47 -6 -64 -19 -72 -16 -9 -17 -10 -1 -11
9 0 20 9 23 20 7 23 13 23 218 20 l127 -2 0 71 c0 39 -2 71 -5 71 -3 0 -5 -30
-5 -66z m-216 10 c21 -8 20 -27 -2 -48 -18 -15 -20 -15 -37 4 -30 33 -5 61 39
44z m130 0 c10 -4 16 -18 16 -40 0 -31 -3 -34 -30 -34 -27 0 -30 3 -30 33 0
45 10 54 44 41z"/>
<path d="M3943 5730 c0 -41 2 -58 4 -37 2 20 2 54 0 75 -2 20 -4 3 -4 -38z"/>
<path d="M4442 5733 l-2 -73 122 0 c100 0 119 2 105 13 -9 6 -18 30 -20 52 -4
39 -4 39 -5 -7 -2 -44 -4 -48 -27 -48 -22 0 -25 4 -25 33 0 40 -15 57 -52 57
-29 0 -29 -2 -32 -65 -1 -14 -9 -21 -28 -23 -27 -3 -27 -2 -31 65 l-3 68 -2
-72z m122 11 c10 -4 16 -18 16 -40 0 -31 -3 -34 -29 -34 -31 0 -40 16 -33 58
4 22 17 27 46 16z"/>
<path d="M5020 5735 c0 -58 -2 -65 -20 -65 -17 0 -20 7 -22 53 l-1 52 -6 -49
c-4 -37 -11 -51 -26 -57 -14 -5 -3 -8 33 -8 l52 -1 0 70 c0 39 -2 70 -5 70 -3
0 -5 -29 -5 -65z"/>
<path d="M5083 5730 c0 -41 2 -58 4 -37 2 20 2 54 0 75 -2 20 -4 3 -4 -38z"/>
<path d="M5693 5730 c0 -41 2 -58 4 -37 2 20 2 54 0 75 -2 20 -4 3 -4 -38z"/>
<path d="M6518 5738 c-3 -60 -4 -63 -30 -66 -26 -3 -28 -1 -28 32 0 37 -20 56
-58 56 -20 0 -32 -25 -32 -67 0 -18 -6 -23 -25 -23 -22 0 -25 5 -25 33 0 17
-4 38 -9 46 -5 8 -7 -5 -4 -34 6 -45 5 -47 -18 -43 -20 2 -25 10 -30 43 l-5
40 -5 -40 c-3 -27 -9 -41 -21 -43 -13 -2 -18 6 -21 35 l-4 38 -1 -37 c-2 -35
-4 -38 -31 -38 -28 0 -30 2 -34 48 l-3 47 -2 -48 c-2 -46 -3 -48 -29 -45 -23
2 -29 9 -31 33 -5 41 -20 57 -51 53 -23 -3 -26 -8 -29 -46 -3 -40 -5 -43 -30
-40 -24 3 -28 8 -33 48 -5 41 -6 39 -7 -22 -2 -54 -5 -67 -19 -71 -16 -4 -16
-5 0 -6 11 -1 21 7 24 19 6 21 41 23 466 20 l137 -1 0 71 c0 87 -8 92 -12 8z
m-474 6 c10 -4 16 -18 16 -40 0 -31 -3 -34 -30 -34 -27 0 -30 3 -30 33 0 45
10 54 44 41z m394 -6 c7 -7 12 -25 12 -40 0 -25 -4 -28 -30 -28 -34 0 -45 17
-36 55 7 27 34 33 54 13z"/>
<path d="M6573 5730 c0 -41 2 -58 4 -37 2 20 2 54 0 75 -2 20 -4 3 -4 -38z"/>
<path d="M6832 5738 l-2 -68 -30 0 c-27 0 -30 3 -30 33 0 39 -15 57 -46 57
-30 0 -31 -3 -36 -85 -3 -38 -3 -58 -1 -42 l4 27 117 1 c64 1 159 0 210 -1
l92 -2 -2 74 -1 73 -6 -65 c-6 -61 -7 -65 -33 -68 -25 -3 -27 -1 -31 45 l-3
48 -2 -47 -2 -48 -41 0 c-39 0 -40 0 -25 22 9 12 16 30 16 40 0 21 -38 33 -70
23 -22 -7 -23 -24 -5 -67 6 -15 2 -18 -28 -18 l-36 0 -4 68 -3 67 -2 -67z
m-88 6 c10 -4 16 -18 16 -40 0 -31 -3 -34 -30 -34 -27 0 -30 3 -30 33 0 45 10
54 44 41z m210 0 c21 -8 20 -27 -2 -48 -18 -15 -20 -15 -37 4 -30 33 -5 61 39
44z"/>
<path d="M7153 5730 c0 -41 2 -58 4 -37 2 20 2 54 0 75 -2 20 -4 3 -4 -38z"/>
<path d="M8282 5733 l-2 -73 260 0 260 0 0 39 c0 44 -18 64 -52 59 -19 -2 -23
-10 -26 -45 -3 -40 -5 -43 -32 -43 -27 0 -29 3 -33 48 l-3 47 -2 -47 c-2 -44
-4 -48 -27 -48 -21 0 -25 5 -25 29 0 53 -44 76 -85 45 -18 -13 -20 -13 -27 3
-4 11 -7 0 -7 -29 -1 -46 -2 -48 -30 -48 -28 0 -30 2 -34 48 l-3 47 -2 -48
c-2 -46 -3 -48 -29 -45 -25 3 -29 8 -34 48 l-6 45 -1 -47 c-2 -44 -4 -48 -27
-48 -23 0 -24 3 -28 68 l-3 67 -2 -72z m300 -7 c18 -40 5 -56 -47 -56 -38 0
-45 3 -45 19 0 21 44 61 67 61 7 0 18 -11 25 -24z m192 18 c10 -4 16 -18 16
-40 0 -31 -3 -34 -30 -34 -27 0 -30 3 -30 33 0 45 10 54 44 41z"/>
<path d="M5545 5759 c-16 -8 -15 -8 9 -4 40 8 76 -18 76 -55 0 -38 -26 -41
-40 -5 -6 15 -17 25 -30 25 -13 0 -24 -10 -30 -25 -7 -18 -17 -25 -35 -25 -22
0 -25 4 -25 33 0 40 -15 57 -52 57 -29 0 -29 -2 -32 -65 -1 -14 -9 -21 -28
-23 -25 -3 -27 -1 -31 45 l-3 48 -2 -48 c-2 -46 -3 -48 -29 -45 -25 3 -28 7
-31 46 -3 39 -5 42 -33 42 -38 0 -58 -37 -41 -75 l12 -25 220 0 220 0 0 39 c0
58 -43 85 -95 60z m-295 -49 c0 -33 -3 -40 -20 -40 -10 0 -24 9 -30 20 -14 26
3 60 30 60 17 0 20 -7 20 -40z m194 34 c10 -4 16 -18 16 -40 0 -31 -3 -34 -29
-34 -31 0 -40 16 -33 58 4 22 17 27 46 16z m136 -54 c0 -13 -7 -20 -20 -20
-13 0 -20 7 -20 20 0 13 7 20 20 20 13 0 20 -7 20 -20z"/>
<path d="M1772 5698 c-2 -54 -5 -67 -19 -71 -17 -4 -17 -5 0 -6 24 -1 29 16
24 85 l-3 59 -2 -67z"/>
<path d="M2043 5753 c-8 -2 -13 -22 -13 -44 0 -36 -2 -39 -27 -40 -17 -1 -21
-3 -10 -6 21 -6 22 -29 1 -37 -27 -10 -79 -7 -96 7 -9 6 -19 23 -21 37 l-4 25
-2 -27 c-2 -42 23 -59 83 -56 42 2 53 7 61 26 8 18 18 22 52 22 l43 0 0 50 c0
48 -1 50 -27 49 -16 0 -34 -3 -40 -6z m52 -43 c0 -31 -3 -35 -25 -35 -19 0
-26 6 -28 23 -5 36 5 54 30 50 19 -2 23 -9 23 -38z"/>
<path d="M2217 5753 c-2 -5 -7 -39 -9 -78 -3 -38 -3 -58 -1 -42 4 24 8 27 44
27 39 0 39 0 39 38 0 21 -5 43 -12 50 -13 13 -54 16 -61 5z m47 -9 c10 -4 16
-18 16 -40 0 -31 -3 -34 -30 -34 -27 0 -30 3 -30 33 0 45 10 54 44 41z"/>
<path d="M3278 5735 c-8 -19 -8 -31 0 -50 11 -24 15 -25 112 -25 l100 0 0 50
c0 46 -2 50 -24 50 -45 0 -56 -10 -56 -52 0 -37 -2 -39 -27 -36 -25 3 -28 7
-31 46 -3 39 -5 42 -33 42 -22 0 -32 -7 -41 -25z m62 -25 c0 -33 -3 -40 -20
-40 -27 0 -44 34 -30 60 6 11 20 20 30 20 17 0 20 -7 20 -40z m140 -1 c0 -38
-1 -40 -27 -37 -47 5 -45 78 2 78 23 0 25 -4 25 -41z"/>
<path d="M4213 5753 c-8 -2 -13 -22 -13 -44 0 -36 -2 -39 -27 -40 -17 -1 -21
-3 -10 -6 21 -6 22 -29 1 -37 -27 -10 -79 -7 -96 7 -9 6 -19 23 -21 37 l-4 25
-2 -27 c-2 -42 23 -59 83 -56 42 2 53 7 61 26 8 18 18 22 52 22 l43 0 0 50 c0
48 -1 50 -27 49 -16 0 -34 -3 -40 -6z m52 -43 c0 -31 -3 -35 -25 -35 -19 0
-26 6 -28 23 -5 36 5 54 30 50 19 -2 23 -9 23 -38z"/>
<path d="M4382 5703 c-2 -47 -6 -64 -19 -72 -17 -10 -17 -10 0 -11 24 0 29 17
24 86 l-3 59 -2 -62z"/>
<path d="M4712 5718 c-1 -26 -7 -49 -14 -51 -7 -3 35 -5 95 -5 l107 0 -2 51
-2 52 -3 -47 c-3 -40 -8 -48 -24 -48 -16 0 -19 7 -20 43 -1 23 -3 33 -6 22 -2
-11 -6 -30 -9 -42 -3 -14 -12 -23 -24 -23 -14 0 -20 9 -23 38 l-4 37 -1 -37
c-2 -35 -4 -38 -31 -38 -28 0 -30 2 -34 48 l-3 47 -2 -47z"/>
<path d="M5752 5748 c-7 -7 -12 -24 -12 -38 0 -32 17 -50 48 -50 33 0 23 -23
-14 -32 -27 -6 -27 -6 6 -5 l35 2 3 68 3 67 -29 0 c-15 0 -33 -5 -40 -12z m58
-38 c0 -41 -9 -47 -44 -34 -19 7 -22 60 -3 67 36 15 47 7 47 -33z"/>
<path d="M7272 5748 c-7 -7 -12 -29 -12 -50 l0 -38 45 0 45 0 0 38 c0 43 -14
62 -45 62 -12 0 -26 -5 -33 -12z m52 -4 c10 -4 16 -18 16 -40 0 -32 -2 -34
-35 -34 -33 0 -35 2 -35 33 0 46 14 56 54 41z"/>
<path d="M7392 5748 c-7 -7 -12 -24 -12 -38 0 -32 17 -50 48 -50 33 0 23 -23
-14 -31 l-29 -7 33 -1 c26 -1 35 4 39 19 5 18 14 20 104 20 l99 0 -2 53 -2 52
-3 -48 c-4 -46 -6 -48 -31 -45 -24 3 -27 8 -30 46 -3 39 -5 42 -32 42 -34 0
-55 -30 -46 -66 6 -21 3 -24 -24 -24 -29 0 -30 2 -30 45 0 43 -1 45 -28 45
-15 0 -33 -5 -40 -12z m58 -38 c0 -41 -9 -47 -44 -34 -19 7 -22 60 -3 67 36
15 47 7 47 -33z m130 0 c0 -32 -4 -40 -18 -40 -10 0 -23 5 -30 12 -25 25 -6
68 30 68 14 0 18 -8 18 -40z"/>
<path d="M7842 5698 c-2 -57 -5 -68 -22 -73 -10 -3 -29 -1 -41 5 -17 9 -20 19
-17 46 2 19 0 34 -4 34 -4 0 -8 -18 -8 -40 0 -33 4 -42 25 -52 30 -13 75 3 75
27 0 12 15 15 75 15 l75 0 0 34 c0 42 -24 68 -59 64 -23 -3 -26 -8 -29 -46 -3
-40 -5 -43 -30 -40 -24 3 -28 8 -33 48 -5 41 -6 39 -7 -22z m140 28 c16 -35 4
-56 -32 -56 -27 0 -30 3 -30 33 0 19 3 37 7 40 14 15 44 6 55 -17z"/>
<path d="M8042 5748 c-7 -7 -12 -24 -12 -38 0 -32 17 -50 48 -50 33 0 23 -23
-14 -31 l-29 -7 33 -1 c26 -1 35 4 39 19 4 14 14 20 34 20 29 0 29 1 27 53
l-2 52 -3 -47 c-4 -43 -7 -48 -29 -48 -22 0 -24 4 -24 45 0 43 -1 45 -28 45
-15 0 -33 -5 -40 -12z m58 -38 c0 -32 -4 -40 -18 -40 -10 0 -23 5 -30 12 -25
25 -6 68 30 68 14 0 18 -8 18 -40z"/>
<path d="M9063 5753 c-8 -2 -13 -22 -13 -44 0 -36 -2 -39 -27 -40 -24 -2 -25
-2 -5 -6 48 -9 13 -43 -44 -43 -49 0 -74 20 -67 52 4 19 3 20 -6 8 -15 -21
-14 -27 9 -50 36 -36 140 -21 140 21 0 5 18 9 40 9 l40 0 0 50 c0 48 -1 50
-27 49 -16 0 -34 -3 -40 -6z m57 -44 c0 -38 -1 -40 -27 -37 -47 5 -45 78 2 78
23 0 25 -4 25 -41z"/>
<path d="M9312 5698 c-2 -57 -5 -68 -22 -73 -10 -3 -29 -1 -41 5 -17 9 -20 19
-17 46 2 19 0 34 -4 34 -4 0 -8 -18 -8 -40 0 -33 4 -42 25 -52 30 -13 75 3 75
27 0 12 17 15 95 15 l95 0 -2 53 -2 52 -3 -47 c-4 -43 -7 -48 -29 -48 -21 0
-24 5 -24 33 0 18 -5 38 -12 45 -15 15 -68 16 -68 1 0 -5 5 -7 11 -4 5 4 21 4
35 1 20 -5 24 -13 24 -42 l0 -35 -57 3 -58 3 -6 45 c-5 41 -6 39 -7 -22z"/>
<path d="M1972 5433 l-2 -73 135 0 135 0 -2 73 -2 72 -3 -67 c-4 -68 -4 -68
-33 -68 -27 0 -29 3 -33 48 l-3 47 -2 -47 c-2 -44 -4 -48 -27 -48 -21 0 -25 5
-25 29 0 37 -24 61 -58 60 l-27 -2 27 -4 c33 -5 50 -25 46 -55 -3 -21 -9 -23
-60 -26 l-57 -3 -4 68 -3 68 -2 -72z"/>
<path d="M2293 5430 c0 -41 2 -58 4 -37 2 20 2 54 0 75 -2 20 -4 3 -4 -38z"/>
<path d="M3040 5435 l0 -65 -29 0 c-28 0 -30 2 -34 48 l-3 47 -2 -47 c-2 -44
-4 -48 -27 -48 -21 0 -25 5 -25 29 0 37 -24 61 -58 60 l-27 -2 27 -4 c33 -5
50 -25 46 -55 -3 -21 -9 -23 -60 -26 l-58 -3 0 46 c0 41 -2 45 -24 45 -45 0
-56 -10 -56 -52 0 -37 -2 -39 -27 -36 -25 3 -29 8 -34 48 l-6 45 -1 -47 c-2
-44 -4 -48 -27 -48 -23 0 -25 4 -25 45 0 43 -1 45 -28 45 -35 0 -52 -16 -52
-50 0 -32 17 -50 48 -50 17 0 23 -5 20 -17 -3 -15 -14 -18 -58 -18 l-55 0 -6
45 -6 45 -1 -47 c-2 -42 1 -48 21 -54 48 -11 101 0 112 24 10 22 11 22 237 22
l228 0 0 70 c0 39 -2 70 -5 70 -3 0 -5 -29 -5 -65z m-460 -25 c0 -41 -9 -47
-44 -34 -19 7 -22 60 -3 67 36 15 47 7 47 -33z m200 -1 c0 -38 -1 -40 -27 -37
-47 5 -45 78 2 78 23 0 25 -4 25 -41z"/>
<path d="M3212 5433 l-2 -73 29 0 c23 0 30 -5 33 -22 2 -19 9 -23 38 -23 27 0
37 5 45 23 8 19 17 22 67 22 l58 0 0 44 c0 46 -11 57 -53 55 -16 -1 -14 -3 8
-8 26 -5 30 -11 33 -44 l3 -37 -55 0 c-55 0 -56 0 -56 29 0 36 -23 61 -55 61
-25 0 -35 -17 -35 -61 0 -24 -4 -29 -25 -29 -23 0 -24 3 -28 68 l-3 67 -2 -72z
m126 5 c7 -7 12 -25 12 -41 0 -26 -3 -28 -32 -25 -26 2 -34 8 -36 26 -2 13 -1
30 2 38 7 17 38 18 54 2z m12 -93 c0 -16 -43 -31 -59 -20 -25 15 -11 35 24 35
24 0 35 -5 35 -15z"/>
<path d="M3532 5433 l-2 -73 135 0 135 0 -2 53 -2 52 -3 -47 c-4 -46 -6 -48
-34 -48 -26 0 -29 3 -29 33 0 40 -15 57 -49 56 -24 -1 -23 -2 7 -10 28 -8 32
-14 32 -45 l0 -35 -57 3 -58 3 -6 45 -6 45 -1 -47 c-2 -44 -4 -48 -27 -48 -23
0 -24 3 -28 68 l-3 67 -2 -72z"/>
<path d="M4190 5435 l0 -65 -30 0 c-29 0 -30 2 -30 45 l0 45 -49 0 c-80 0 -96
-45 -26 -74 59 -25 40 -66 -31 -66 -49 0 -74 20 -67 52 4 19 3 20 -6 8 -15
-21 -14 -27 9 -50 38 -38 140 -20 140 25 0 17 -27 45 -44 45 -6 0 -17 5 -24
12 -19 19 6 38 49 38 l39 0 0 -45 0 -45 40 0 40 0 0 70 c0 39 -2 70 -5 70 -3
0 -5 -29 -5 -65z"/>
<path d="M4253 5430 c0 -41 2 -58 4 -37 2 20 2 54 0 75 -2 20 -4 3 -4 -38z"/>
<path d="M5010 5435 c0 -63 -1 -65 -25 -65 -21 0 -25 5 -25 29 0 38 -25 63
-59 59 -23 -3 -26 -8 -29 -45 -3 -43 -3 -43 -43 -43 -39 0 -40 0 -25 22 9 12
16 30 16 40 0 21 -38 33 -70 23 -22 -7 -23 -24 -5 -67 6 -15 2 -18 -28 -18
-36 0 -36 0 -40 48 -3 43 -4 42 -5 -15 -2 -47 -6 -64 -19 -72 -17 -10 -17 -10
0 -11 11 0 21 9 24 20 6 23 11 23 216 20 l127 -2 0 71 c0 39 -2 71 -5 71 -3 0
-5 -29 -5 -65z m-216 9 c21 -8 20 -27 -2 -48 -18 -15 -20 -15 -37 4 -30 33 -5
61 39 44z m148 -18 c16 -35 4 -56 -32 -56 -27 0 -30 3 -30 33 0 19 3 37 7 40
14 15 44 6 55 -17z"/>
<path d="M5073 5430 c0 -41 2 -58 4 -37 2 20 2 54 0 75 -2 20 -4 3 -4 -38z"/>
<path d="M5523 5430 c0 -41 2 -58 4 -37 2 20 2 54 0 75 -2 20 -4 3 -4 -38z"/>
<path d="M5642 5433 l-2 -73 35 0 c19 0 34 -3 34 -7 -5 -30 3 -43 25 -43 37 0
56 10 56 31 0 17 9 19 105 19 l105 0 -2 73 -2 72 -3 -67 c-4 -68 -4 -68 -33
-68 -27 0 -30 3 -30 33 0 40 -15 57 -52 57 -29 0 -29 -2 -32 -65 -1 -14 -9
-21 -29 -23 -25 -3 -27 0 -27 30 0 39 -15 58 -46 58 -28 0 -36 -12 -36 -56 0
-31 -3 -34 -29 -34 -28 0 -28 1 -32 68 l-3 67 -2 -72z m122 11 c10 -4 16 -18
16 -40 0 -31 -3 -34 -30 -34 -28 0 -30 2 -30 40 0 41 9 47 44 34z m140 0 c10
-4 16 -18 16 -40 0 -31 -3 -34 -29 -34 -31 0 -40 16 -33 58 4 22 17 27 46 16z
m-126 -101 c-2 -11 -14 -19 -31 -21 -22 -3 -27 1 -27 17 0 17 6 21 31 21 24 0
30 -4 27 -17z"/>
<path d="M6053 5430 c0 -41 2 -58 4 -37 2 20 2 54 0 75 -2 20 -4 3 -4 -38z"/>
<path d="M6382 5433 l-2 -72 200 -1 200 0 0 26 c0 42 -18 64 -50 64 -33 0 -35
2 -19 33 10 21 10 21 -5 3 -24 -30 -20 -46 14 -46 19 0 33 -7 40 -21 20 -37 6
-49 -59 -49 l-60 0 -4 48 -3 47 -2 -47 c-2 -46 -3 -48 -31 -48 -28 0 -30 2
-34 48 l-3 47 -2 -47 c-2 -41 -5 -48 -22 -48 -17 0 -20 7 -21 43 l-2 42 -6
-40 c-5 -31 -11 -41 -28 -43 -19 -3 -22 2 -26 35 l-4 38 -1 -37 c-2 -35 -4
-38 -32 -38 -29 0 -29 0 -33 68 l-3 67 -2 -72z"/>
<path d="M6823 5430 c0 -41 2 -58 4 -37 2 20 2 54 0 75 -2 20 -4 3 -4 -38z"/>
<path d="M7102 5438 l-2 -68 -44 0 c-45 0 -60 10 -69 45 -4 15 -5 14 -6 -7 -1
-18 6 -31 18 -38 12 -6 117 -10 270 -10 l251 0 -2 53 -2 52 -3 -48 c-4 -46 -6
-48 -31 -45 -22 2 -28 9 -30 33 -5 41 -20 57 -51 53 -23 -3 -26 -8 -29 -45 -3
-40 -5 -43 -33 -43 -25 0 -29 4 -29 28 0 36 -16 52 -52 52 -28 0 -28 0 -12 25
9 14 12 25 7 25 -5 0 -15 -11 -21 -25 -13 -28 -9 -31 38 -37 20 -2 26 -9 28
-36 l3 -33 -63 3 -63 3 -6 45 -6 45 -1 -47 c-2 -44 -4 -48 -27 -48 -23 0 -24
3 -28 68 l-3 67 -2 -67z m322 6 c10 -4 16 -18 16 -40 0 -31 -3 -34 -30 -34
-27 0 -30 3 -30 33 0 45 10 54 44 41z"/>
<path d="M8602 5438 l-2 -68 -30 0 c-27 0 -30 3 -30 33 0 39 -15 57 -46 57
-28 0 -36 -12 -36 -56 0 -32 -2 -35 -26 -32 -22 2 -28 9 -30 33 -5 41 -20 57
-51 53 -23 -3 -26 -8 -29 -45 -3 -40 -5 -43 -33 -43 -28 0 -29 2 -29 45 0 43
-1 45 -28 45 -35 0 -52 -16 -52 -50 0 -45 14 -50 152 -50 70 0 127 -3 127 -7
-5 -30 3 -43 25 -43 37 0 56 10 56 31 0 17 9 19 105 19 l105 0 0 38 c0 45 -14
62 -52 62 -29 0 -29 -2 -32 -65 -1 -14 -9 -21 -28 -23 -27 -3 -27 -2 -31 65
l-3 68 -2 -67z m-352 -28 c0 -32 -4 -40 -18 -40 -10 0 -23 5 -30 12 -25 25 -6
68 30 68 14 0 18 -8 18 -40z m124 34 c10 -4 16 -18 16 -40 0 -31 -3 -34 -30
-34 -27 0 -30 3 -30 33 0 45 10 54 44 41z m140 0 c10 -4 16 -18 16 -40 0 -31
-3 -34 -30 -34 -28 0 -30 2 -30 40 0 41 9 47 44 34z m210 0 c10 -4 16 -18 16
-40 0 -31 -3 -34 -29 -34 -31 0 -40 16 -33 58 4 22 17 27 46 16z m-196 -101
c-2 -11 -14 -19 -31 -21 -22 -3 -27 1 -27 17 0 17 6 21 31 21 24 0 30 -4 27
-17z"/>
<path d="M9312 5438 l-2 -68 -29 0 c-28 0 -30 2 -34 48 l-3 47 -2 -48 c-2 -46
-3 -48 -29 -45 -23 2 -29 9 -31 33 -5 41 -20 57 -51 53 -23 -3 -26 -8 -29 -45
-3 -40 -5 -43 -32 -43 -27 0 -29 3 -33 48 l-3 47 -2 -47 c-2 -44 -4 -48 -27
-48 -23 0 -25 4 -25 45 0 41 -2 45 -24 45 -45 0 -56 -10 -56 -50 0 -26 5 -40
17 -44 9 -4 146 -6 305 -5 l288 1 -2 51 -2 52 -3 -47 c-4 -47 -5 -48 -39 -48
-37 0 -43 10 -19 30 39 32 3 68 -56 55 -25 -6 -29 -10 -23 -28 3 -12 10 -26
15 -31 17 -18 9 -26 -26 -26 l-34 0 -4 68 -3 67 -2 -67z m-347 -28 c0 -31 -3
-35 -25 -35 -19 0 -26 6 -28 23 -5 36 5 54 30 50 19 -2 23 -9 23 -38z m189 34
c10 -4 16 -18 16 -40 0 -31 -3 -34 -30 -34 -27 0 -30 3 -30 33 0 45 10 54 44
41z m280 0 c21 -8 20 -27 -3 -48 -18 -16 -20 -16 -40 10 -17 21 -19 29 -9 36
16 9 31 10 52 2z"/>
<path d="M1623 5453 c-8 -2 -13 -22 -13 -44 0 -36 -2 -39 -27 -40 -17 -1 -21
-3 -10 -6 21 -6 22 -29 1 -37 -27 -10 -79 -7 -96 7 -9 6 -19 23 -21 37 l-4 25
-2 -27 c-2 -42 23 -59 83 -56 42 2 53 7 61 26 8 18 18 22 52 22 l43 0 0 50 c0
48 -1 50 -27 49 -16 0 -34 -3 -40 -6z m52 -43 c0 -31 -3 -35 -25 -35 -19 0
-26 6 -28 23 -5 36 5 54 30 50 19 -2 23 -9 23 -38z"/>
<path d="M1875 5451 c26 -5 30 -11 33 -44 3 -35 2 -37 -27 -37 -35 0 -55 -26
-40 -53 7 -11 21 -16 42 -16 l32 2 -30 4 c-56 9 -55 53 1 53 33 0 34 1 34 44
0 46 -11 57 -53 55 -16 -1 -14 -3 8 -8z"/>
<path d="M4423 5453 c-19 -7 -17 -80 3 -87 9 -3 56 -6 105 -6 l89 0 0 50 c0
48 -1 50 -29 50 -37 0 -54 -22 -49 -60 4 -27 2 -30 -24 -30 -27 0 -28 2 -28
45 0 43 -1 45 -27 44 -16 0 -34 -3 -40 -6z m52 -43 c0 -31 -3 -35 -25 -35 -19
0 -26 6 -28 23 -5 36 5 54 30 50 19 -2 23 -9 23 -38z m135 0 c0 -32 -4 -40
-18 -40 -10 0 -23 5 -30 12 -25 25 -6 68 30 68 14 0 18 -8 18 -40z"/>
<path d="M5132 5448 c-7 -7 -12 -24 -12 -38 0 -32 17 -50 48 -50 33 0 23 -23
-14 -32 -27 -6 -27 -6 6 -5 l35 2 3 68 3 67 -29 0 c-15 0 -33 -5 -40 -12z m58
-38 c0 -41 -9 -47 -44 -34 -19 7 -22 60 -3 67 36 15 47 7 47 -33z"/>
<path d="M5460 5415 c0 -45 0 -45 -34 -45 -52 0 -66 9 -67 44 -2 31 -2 31 -6
3 -6 -42 12 -57 68 -57 l49 0 0 50 c0 28 -2 50 -5 50 -3 0 -5 -20 -5 -45z"/>
<path d="M5582 5398 c-2 -54 -5 -67 -19 -71 -17 -4 -17 -5 0 -6 24 -1 29 16
24 85 l-3 59 -2 -67z"/>
<path d="M6320 5415 c0 -45 0 -45 -34 -45 -52 0 -66 9 -67 44 -2 31 -2 31 -6
3 -6 -42 12 -57 68 -57 l49 0 0 50 c0 28 -2 50 -5 50 -3 0 -5 -20 -5 -45z"/>
<path d="M7030 5445 c0 -8 8 -15 18 -14 10 0 12 3 4 6 -6 2 -10 9 -6 14 3 5 0
9 -5 9 -6 0 -11 -7 -11 -15z"/>
<path d="M7782 5418 c-2 -48 -2 -48 -36 -48 -52 0 -66 9 -67 44 -2 31 -2 31
-6 3 -8 -53 5 -57 168 -57 l149 0 0 34 c0 42 -22 66 -58 65 l-27 -2 25 -4 c37
-7 51 -23 48 -52 -3 -24 -7 -26 -60 -29 l-57 -3 -4 48 -3 48 -2 -48 c-2 -46
-3 -48 -29 -45 -25 3 -29 8 -34 48 l-6 45 -1 -47z"/>
<path d="M8137 5380 c-3 -11 -1 -20 4 -20 5 0 9 9 9 20 0 11 -2 20 -4 20 -2 0
-6 -9 -9 -20z"/>
<path d="M6265 5330 c3 -5 8 -10 11 -10 2 0 4 5 4 10 0 6 -5 10 -11 10 -5 0
-7 -4 -4 -10z"/>
<path d="M1722 5138 l-2 -68 -29 0 c-28 0 -30 2 -34 48 l-3 47 -2 -47 c-2 -44
-4 -48 -26 -48 -22 0 -25 5 -29 48 l-3 47 -2 -47 c-2 -46 -3 -48 -32 -48 -29
0 -30 2 -30 45 0 43 -1 45 -28 45 -35 0 -52 -16 -52 -50 0 -48 10 -50 217 -50
l193 0 -2 73 -2 72 -3 -68 c-4 -68 -4 -68 -31 -65 -24 3 -28 8 -33 48 l-6 45
-1 -47 c-2 -44 -4 -48 -27 -48 -23 0 -24 3 -28 68 l-3 67 -2 -67z m-202 -28
c0 -32 -4 -40 -18 -40 -10 0 -23 5 -30 12 -25 25 -6 68 30 68 14 0 18 -8 18
-40z"/>
<path d="M1972 5133 l-2 -73 280 0 280 0 0 34 c0 42 -22 67 -58 65 l-27 -2 27
-4 c33 -5 50 -25 46 -55 -3 -21 -9 -23 -60 -26 -57 -3 -58 -2 -58 23 0 58 -35
81 -76 50 -25 -19 -32 -19 -37 3 -3 9 -5 -4 -6 -30 -1 -46 -2 -48 -30 -48 -28
0 -30 2 -34 48 l-3 47 -2 -47 c-2 -44 -4 -48 -27 -48 -21 0 -25 5 -25 29 0 53
-44 76 -85 45 -18 -13 -20 -13 -27 3 -4 11 -7 0 -7 -29 -1 -46 -2 -48 -31 -48
-29 0 -29 0 -33 68 l-3 67 -2 -72z m170 -7 c18 -40 5 -56 -47 -56 -38 0 -45 3
-45 19 0 21 44 61 67 61 7 0 18 -11 25 -24z m236 12 c7 -7 12 -25 12 -41 0
-27 -1 -28 -47 -25 -55 4 -64 18 -29 53 28 28 46 31 64 13z"/>
<path d="M3358 5138 c-3 -60 -4 -63 -30 -66 -26 -3 -28 -1 -28 32 0 37 -20 56
-58 56 -20 0 -32 -25 -32 -67 0 -18 -6 -23 -25 -23 -21 0 -25 5 -25 29 0 53
-44 76 -85 45 -18 -13 -20 -13 -27 3 -4 11 -7 0 -7 -29 -1 -46 -2 -48 -31 -48
-28 0 -30 3 -30 35 0 36 -20 55 -58 55 -20 0 -32 -25 -32 -67 0 -18 -6 -23
-25 -23 -22 0 -25 4 -25 35 0 36 -20 55 -58 55 -20 0 -32 -25 -32 -67 0 -18
-6 -23 -25 -23 -23 0 -25 4 -25 45 0 41 -2 45 -24 45 -45 0 -56 -10 -56 -50 0
-25 5 -40 16 -44 9 -3 177 -6 375 -6 l359 0 0 70 c0 87 -8 92 -12 8z m-673
-28 c0 -31 -3 -35 -25 -35 -19 0 -26 6 -28 23 -5 36 5 54 30 50 19 -2 23 -9
23 -38z m133 28 c7 -7 12 -25 12 -40 0 -25 -4 -28 -30 -28 -34 0 -45 17 -36
55 7 27 34 33 54 13z m140 0 c7 -7 12 -25 12 -40 0 -25 -4 -28 -30 -28 -34 0
-45 17 -36 55 7 27 34 33 54 13z m184 -12 c18 -40 5 -56 -47 -56 -38 0 -45 3
-45 19 0 21 44 61 67 61 7 0 18 -11 25 -24z m136 12 c7 -7 12 -25 12 -40 0
-25 -4 -28 -30 -28 -34 0 -45 17 -36 55 7 27 34 33 54 13z"/>
<path d="M3413 5130 c0 -41 2 -58 4 -37 2 20 2 54 0 75 -2 20 -4 3 -4 -38z"/>
<path d="M3932 5138 l-2 -68 -29 0 c-28 0 -30 2 -34 48 l-3 47 -2 -47 c-2 -44
-4 -48 -27 -48 -21 0 -25 5 -25 29 0 38 -25 63 -59 59 -23 -3 -26 -8 -29 -46
-3 -40 -5 -43 -30 -40 -24 3 -28 8 -33 48 l-6 45 -1 -47 c-2 -44 -4 -48 -27
-48 -23 0 -25 4 -25 45 0 43 -1 45 -28 45 -35 0 -52 -16 -52 -50 0 -48 9 -50
235 -50 115 0 205 4 198 8 -7 4 -14 37 -16 72 l-3 65 -2 -67z m-342 -28 c0
-41 -9 -47 -44 -34 -19 7 -22 60 -3 67 36 15 47 7 47 -33z m202 16 c16 -35 4
-56 -32 -56 -27 0 -30 3 -30 33 0 19 3 37 7 40 14 15 44 6 55 -17z"/>
<path d="M4198 5138 c-3 -60 -4 -63 -30 -66 -25 -3 -27 -1 -31 45 l-3 48 -2
-47 -2 -48 -41 0 c-39 0 -40 0 -25 22 33 46 7 78 -51 63 -26 -6 -28 -22 -9
-67 6 -12 2 -17 -16 -20 -13 -2 32 -5 100 -6 l122 -2 0 70 c0 87 -8 92 -12 8z
m-144 6 c21 -8 20 -27 -2 -48 -18 -15 -20 -15 -37 4 -30 33 -5 61 39 44z"/>
<path d="M4253 5130 c0 -41 2 -58 4 -37 2 20 2 54 0 75 -2 20 -4 3 -4 -38z"/>
<path d="M4533 5130 c0 -41 2 -58 4 -37 2 20 2 54 0 75 -2 20 -4 3 -4 -38z"/>
<path d="M4860 5135 l0 -65 -30 0 c-27 0 -30 3 -30 33 0 40 -15 57 -52 57 -29
0 -29 -2 -32 -65 -1 -14 -9 -21 -29 -23 -26 -3 -27 -2 -27 42 0 44 -1 46 -28
46 -35 0 -52 -16 -52 -50 0 -32 17 -50 48 -50 33 0 23 -23 -14 -31 l-29 -7 33
-1 c26 -1 35 4 39 19 5 18 14 20 109 20 l104 0 0 70 c0 39 -2 70 -5 70 -3 0
-5 -29 -5 -65z m-210 -25 c0 -32 -4 -40 -18 -40 -10 0 -23 5 -30 12 -25 25 -6
68 30 68 14 0 18 -8 18 -40z m124 34 c10 -4 16 -18 16 -40 0 -31 -3 -34 -29
-34 -31 0 -40 16 -33 58 4 22 17 27 46 16z"/>
<path d="M4923 5130 c0 -41 2 -58 4 -37 2 20 2 54 0 75 -2 20 -4 3 -4 -38z"/>
<path d="M5323 5130 c0 -41 2 -58 4 -37 2 20 2 54 0 75 -2 20 -4 3 -4 -38z"/>
<path d="M5670 5135 l0 -65 -30 0 c-27 0 -30 3 -30 33 0 38 -15 57 -44 57 -19
0 -18 -2 4 -13 17 -9 26 -22 28 -44 3 -29 1 -32 -30 -36 -18 -2 0 -5 40 -5
l72 -2 0 70 c0 39 -2 70 -5 70 -3 0 -5 -29 -5 -65z"/>
<path d="M5723 5130 c0 -41 2 -58 4 -37 2 20 2 54 0 75 -2 20 -4 3 -4 -38z"/>
<path d="M6613 5130 c0 -41 2 -58 4 -37 2 20 2 54 0 75 -2 20 -4 3 -4 -38z"/>
<path d="M8583 5130 c0 -41 2 -58 4 -37 2 20 2 54 0 75 -2 20 -4 3 -4 -38z"/>
<path d="M8852 5138 l-2 -68 -34 0 c-52 0 -66 9 -67 44 -2 31 -2 31 -6 3 -9
-58 -15 -57 398 -57 l379 1 0 34 c0 41 -24 67 -59 63 -23 -3 -26 -8 -29 -45
-3 -38 -6 -43 -28 -43 -19 0 -24 5 -25 28 0 15 -4 36 -9 47 -6 14 -8 7 -7 -25
2 -39 -1 -45 -18 -45 -16 0 -21 9 -26 40 l-5 40 -5 -40 c-3 -28 -9 -41 -21
-43 -15 -3 -18 4 -19 35 l-2 38 -6 -35 c-5 -29 -11 -36 -33 -38 -25 -3 -27 -1
-31 45 l-3 48 -2 -47 c-2 -46 -3 -48 -32 -48 -29 0 -30 2 -30 45 0 43 -1 45
-29 45 -37 0 -54 -22 -49 -60 4 -27 2 -30 -23 -30 -26 0 -28 3 -32 48 l-3 47
-2 -47 c-2 -46 -3 -48 -32 -48 -29 0 -29 0 -33 68 l-3 67 -2 -68 c-2 -68 -2
-68 -29 -65 -27 3 -28 6 -34 68 l-6 65 -1 -67z m268 -28 c0 -32 -4 -40 -18
-40 -10 0 -23 5 -30 12 -25 25 -6 68 30 68 14 0 18 -8 18 -40z m382 16 c16
-35 4 -56 -32 -56 -27 0 -30 3 -30 33 0 19 3 37 7 40 14 15 44 6 55 -17z"/>
<path d="M4390 5147 c17 -9 26 -22 28 -44 3 -29 1 -32 -30 -36 l-33 -4 38 -1
c37 -2 37 -2 37 36 0 43 -14 62 -44 62 -19 0 -18 -2 4 -13z"/>
<path d="M4482 5110 c-2 -59 -8 -74 -32 -83 -13 -4 -12 -6 1 -6 29 -2 40 25
36 86 l-3 58 -2 -55z"/>
<path d="M4983 5153 c-7 -2 -13 -22 -13 -43 0 -39 11 -50 52 -50 32 0 15 -24
-23 -31 l-34 -6 31 -2 c43 -2 54 15 54 81 0 57 -1 58 -27 57 -16 0 -34 -3 -40
-6z m52 -43 c0 -31 -3 -35 -25 -35 -19 0 -26 6 -28 23 -5 36 5 54 30 50 19 -2
23 -9 23 -38z"/>
<path d="M5260 5115 l0 -45 -42 0 c-52 0 -65 7 -71 40 -4 25 -4 25 -6 -2 -1
-34 22 -48 83 -48 l46 0 0 50 c0 28 -2 50 -5 50 -3 0 -5 -20 -5 -45z"/>
<path d="M5382 5103 c-2 -47 -6 -64 -19 -72 -17 -10 -17 -10 -1 -11 22 0 30
32 25 96 -3 47 -3 46 -5 -13z"/>
<path d="M5432 5148 c-7 -7 -12 -24 -12 -38 0 -32 17 -50 48 -50 33 0 23 -23
-14 -32 -27 -6 -27 -6 6 -5 l35 2 3 68 3 67 -29 0 c-15 0 -33 -5 -40 -12z m58
-38 c0 -32 -4 -40 -18 -40 -10 0 -23 5 -30 12 -25 25 -6 68 30 68 14 0 18 -8
18 -40z"/>
<path d="M5932 5108 c-3 -78 -33 -107 -77 -75 -14 11 -17 21 -12 48 5 24 4 30
-3 19 -27 -42 8 -98 54 -86 14 3 30 15 36 26 9 17 21 20 80 20 l70 0 0 34 c0
42 -24 68 -59 64 -23 -3 -26 -8 -29 -45 -3 -38 -6 -43 -27 -43 -21 0 -24 5
-28 48 l-3 47 -2 -57z m130 18 c16 -35 4 -56 -32 -56 -27 0 -30 3 -30 33 0 19
3 37 7 40 14 15 44 6 55 -17z"/>
<path d="M6182 5148 c-16 -16 -15 -63 1 -76 8 -7 80 -11 195 -11 l182 1 -2 51
-2 52 -3 -47 c-3 -40 -8 -48 -24 -48 -16 0 -19 8 -20 43 l-2 42 -6 -40 c-5
-31 -11 -41 -28 -43 -19 -3 -22 2 -26 35 l-4 38 -1 -37 c-2 -36 -4 -38 -37
-38 -38 0 -42 5 -20 34 22 30 18 44 -15 51 -58 13 -94 -23 -55 -55 25 -21 17
-30 -25 -30 l-40 0 0 45 c0 43 -1 45 -28 45 -15 0 -33 -5 -40 -12z m58 -38 c0
-32 -4 -40 -18 -40 -10 0 -23 5 -30 12 -25 25 -6 68 30 68 14 0 18 -8 18 -40z
m140 30 c13 -8 11 -13 -11 -36 l-27 -26 -18 27 c-15 23 -15 28 -3 36 18 11 40
11 59 -1z"/>
<path d="M6672 5148 c-7 -7 -12 -24 -12 -38 0 -32 17 -50 48 -50 33 0 23 -23
-14 -32 -27 -6 -27 -6 6 -5 l35 2 3 68 3 67 -29 0 c-15 0 -33 -5 -40 -12z m58
-38 c0 -41 -9 -47 -44 -34 -19 7 -22 60 -3 67 36 15 47 7 47 -33z"/>
<path d="M6842 5148 c-7 -7 -12 -24 -12 -38 0 -44 16 -50 120 -49 55 1 82 4
65 8 -51 11 -44 79 9 82 16 1 17 2 4 6 -32 8 -58 -15 -58 -52 0 -32 -2 -35
-30 -35 -29 0 -30 2 -30 45 0 43 -1 45 -28 45 -15 0 -33 -5 -40 -12z m58 -38
c0 -32 -4 -40 -18 -40 -10 0 -23 5 -30 12 -25 25 -6 68 30 68 14 0 18 -8 18
-40z"/>
<path d="M7092 5148 c-7 -7 -12 -24 -12 -38 0 -32 17 -50 48 -50 33 0 23 -23
-14 -31 l-29 -7 33 -1 c26 -1 35 4 39 19 5 19 14 20 209 20 l204 0 0 40 c0 29
-5 42 -19 50 -47 25 -70 5 -71 -57 0 -18 -6 -23 -25 -23 -21 0 -25 5 -25 29 0
37 -24 61 -58 60 l-27 -2 27 -4 c33 -5 50 -25 46 -55 -3 -21 -9 -23 -60 -26
l-58 -3 0 34 c0 40 -15 57 -52 57 -29 0 -29 -2 -32 -65 -1 -14 -9 -21 -29 -23
-26 -3 -27 -2 -27 42 0 44 -1 46 -28 46 -15 0 -33 -5 -40 -12z m58 -38 c0 -41
-9 -47 -44 -34 -19 7 -22 60 -3 67 36 15 47 7 47 -33z m124 34 c10 -4 16 -18
16 -40 0 -31 -3 -34 -29 -34 -31 0 -40 16 -33 58 4 22 17 27 46 16z m274 -6
c7 -7 12 -25 12 -40 0 -25 -4 -28 -30 -28 -34 0 -45 17 -36 55 7 27 34 33 54
13z"/>
<path d="M7761 5108 c-1 -77 -31 -107 -76 -75 -14 11 -17 21 -12 48 5 24 4 30
-3 19 -15 -23 -12 -55 8 -73 41 -38 92 -3 92 63 0 33 3 40 20 40 16 0 20 -7
20 -35 0 -34 1 -35 40 -35 l40 0 -2 53 -2 52 -3 -48 c-4 -46 -6 -48 -31 -45
-24 3 -28 8 -33 48 -3 25 -7 39 -7 33 -1 -7 -11 -13 -21 -13 -11 0 -22 6 -24
13 -3 6 -6 -14 -6 -45z"/>
<path d="M8080 5101 c-4 -47 -10 -67 -22 -75 -27 -17 -52 5 -59 50 l-6 39 -2
-43 c-1 -36 3 -44 24 -54 30 -13 75 3 75 27 0 12 14 15 70 15 l70 0 0 38 c0
45 -14 62 -52 62 -29 0 -29 -2 -32 -65 -1 -14 -9 -21 -28 -23 -25 -3 -27 -1
-30 45 -4 47 -4 46 -8 -16z m124 43 c10 -4 16 -18 16 -40 0 -31 -3 -34 -29
-34 -31 0 -40 16 -33 58 4 22 17 27 46 16z"/>
<path d="M8341 5103 c-1 -48 -5 -65 -18 -73 -16 -10 -16 -10 2 -8 17 3 21 12
23 56 3 48 5 52 28 52 21 0 24 -5 24 -35 l0 -35 70 0 70 0 0 34 c0 42 -22 66
-58 65 l-27 -2 25 -4 c37 -7 51 -23 48 -52 -3 -24 -7 -26 -60 -29 l-58 -3 -1
48 c0 26 -3 42 -6 36 -2 -7 -15 -13 -28 -13 -13 0 -26 6 -28 13 -3 6 -6 -16
-6 -50z"/>
<path d="M8788 5133 c6 -2 18 -2 25 0 6 3 1 5 -13 5 -14 0 -19 -2 -12 -5z"/>
<path d="M1638 4923 c6 -2 18 -2 25 0 6 3 1 5 -13 5 -14 0 -19 -2 -12 -5z"/>
<path d="M1653 4830 c0 -41 2 -58 4 -37 2 20 2 54 0 75 -2 20 -4 3 -4 -38z"/>
<path d="M2173 4830 c0 -41 2 -58 4 -37 2 20 2 54 0 75 -2 20 -4 3 -4 -38z"/>
<path d="M2292 4833 l-2 -73 100 0 100 0 -2 53 -2 52 -3 -47 c-4 -43 -7 -48
-29 -48 -21 0 -24 5 -24 33 0 40 -15 57 -49 56 -24 -1 -23 -2 7 -10 28 -8 32
-14 32 -44 l0 -35 -60 0 -59 0 -4 68 -3 67 -2 -72z"/>
<path d="M2620 4835 c0 -62 -1 -65 -24 -65 -23 0 -25 4 -29 53 l-3 52 -2 -52
c-2 -40 -6 -53 -19 -56 -10 -3 6 -5 35 -6 l52 -1 0 70 c0 39 -2 70 -5 70 -3 0
-5 -29 -5 -65z"/>
<path d="M2682 4833 l-2 -73 35 0 35 0 -2 53 -2 52 -3 -47 c-4 -43 -7 -48 -28
-48 -23 0 -24 4 -28 68 l-3 67 -2 -72z"/>
<path d="M3152 4838 c-2 -67 -3 -68 -29 -69 -17 -1 -21 -3 -10 -6 21 -6 22
-29 1 -37 -27 -10 -79 -7 -96 7 -9 6 -19 23 -21 37 -4 21 -4 20 -6 -7 -1 -41
23 -55 87 -51 38 2 49 8 57 26 9 20 16 22 87 22 l78 0 0 39 c0 44 -18 64 -52
59 -19 -2 -23 -10 -26 -46 -3 -40 -5 -43 -30 -40 -26 3 -27 7 -33 68 l-6 65
-1 -67z m122 6 c10 -4 16 -18 16 -40 0 -31 -3 -34 -30 -34 -27 0 -30 3 -30 33
0 45 10 54 44 41z"/>
<path d="M4310 4835 l0 -65 -41 0 c-39 0 -40 0 -25 22 9 12 16 30 16 40 0 21
-38 33 -70 23 -22 -7 -23 -24 -5 -67 6 -15 2 -18 -29 -18 -34 0 -36 2 -36 33
0 38 -15 57 -44 57 -19 0 -18 -2 4 -13 17 -9 26 -22 28 -44 3 -29 1 -32 -30
-36 -18 -2 29 -4 105 -4 l137 -1 0 69 c0 38 -2 69 -5 69 -3 0 -5 -29 -5 -65z
m-76 9 c21 -8 20 -27 -2 -48 -18 -15 -20 -15 -37 4 -30 33 -5 61 39 44z"/>
<path d="M4933 4830 c0 -41 2 -58 4 -37 2 20 2 54 0 75 -2 20 -4 3 -4 -38z"/>
<path d="M5638 4838 c-3 -60 -4 -63 -30 -66 -26 -3 -28 -1 -28 32 0 37 -20 56
-58 56 -20 0 -32 -25 -32 -67 0 -18 -6 -23 -25 -23 -21 0 -25 5 -25 29 0 38
-25 63 -59 59 -23 -3 -26 -8 -29 -45 -3 -38 -6 -43 -28 -43 -22 0 -24 4 -24
45 l0 45 -48 0 c-26 0 -53 -5 -60 -12 -23 -23 -13 -46 23 -58 27 -9 35 -17 35
-35 0 -26 -17 -35 -64 -35 -40 0 -63 17 -69 50 l-4 25 -2 -27 c-2 -40 23 -58
78 -58 52 0 71 12 71 48 0 17 -9 27 -35 38 -59 24 -42 54 31 54 34 0 34 0 34
-45 0 -43 1 -45 30 -45 23 0 30 -4 30 -20 0 -11 7 -23 15 -26 25 -10 67 6 72
26 5 18 15 20 109 20 l104 0 0 70 c0 87 -8 92 -12 8z m-216 -12 c16 -35 4 -56
-32 -56 -27 0 -30 3 -30 33 0 19 3 37 7 40 14 15 44 6 55 -17z m136 12 c7 -7
12 -25 12 -40 0 -25 -4 -28 -30 -28 -34 0 -45 17 -36 55 7 27 34 33 54 13z
m-130 -90 c-11 -33 -68 -36 -68 -3 0 11 10 15 36 15 23 0 34 -4 32 -12z"/>
<path d="M5693 4830 c0 -41 2 -58 4 -37 2 20 2 54 0 75 -2 20 -4 3 -4 -38z"/>
<path d="M6590 4835 l0 -65 -29 0 c-28 0 -30 2 -34 48 l-3 47 -2 -47 c-2 -41
-5 -48 -22 -48 -17 0 -20 7 -21 43 -1 23 -3 33 -6 22 -2 -11 -6 -30 -9 -42 -3
-14 -12 -23 -24 -23 -14 0 -20 9 -23 38 l-4 37 -1 -37 c-2 -35 -4 -38 -32 -38
-27 0 -30 3 -30 33 0 40 -15 57 -49 56 -24 -1 -23 -2 7 -10 28 -8 32 -14 32
-44 l0 -35 -55 0 c-51 0 -55 2 -55 23 0 30 -27 67 -48 67 -10 0 -28 -7 -40
-16 -20 -14 -22 -14 -22 0 0 24 -96 22 -108 -1 -14 -26 -4 -42 34 -58 58 -24
38 -65 -30 -65 -52 0 -63 8 -69 45 l-4 30 -2 -32 c-1 -39 20 -53 78 -53 71 0
99 59 39 85 -18 7 -36 17 -40 21 -15 15 15 34 53 34 l39 0 0 -45 0 -45 245 0
245 1 0 69 c0 39 -2 70 -5 70 -3 0 -5 -29 -5 -65z m-396 9 c10 -4 16 -18 16
-40 0 -34 -1 -34 -45 -34 -38 0 -45 3 -45 19 0 11 12 29 26 40 30 24 27 23 48
15z"/>
<path d="M6653 4830 c0 -41 2 -58 4 -37 2 20 2 54 0 75 -2 20 -4 3 -4 -38z"/>
<path d="M7120 4835 l0 -65 -29 0 c-28 0 -30 2 -34 48 l-3 47 -2 -47 c-2 -44
-4 -48 -27 -48 -21 0 -25 5 -25 29 0 38 -25 63 -59 59 -23 -3 -26 -8 -29 -46
-3 -40 -5 -43 -30 -40 -24 3 -27 8 -30 46 -3 39 -5 42 -33 42 -22 0 -32 -7
-41 -25 -16 -36 3 -75 38 -75 35 0 26 -23 -12 -31 l-29 -7 33 -1 c26 -1 35 4
39 19 5 19 14 20 144 20 l139 0 0 70 c0 39 -2 70 -5 70 -3 0 -5 -29 -5 -65z
m-280 -25 c0 -33 -3 -40 -20 -40 -10 0 -24 9 -30 20 -14 26 3 60 30 60 17 0
20 -7 20 -40z m142 16 c16 -35 4 -56 -32 -56 -27 0 -30 3 -30 33 0 19 3 37 7
40 14 15 44 6 55 -17z"/>
<path d="M7183 4830 c0 -41 2 -58 4 -37 2 20 2 54 0 75 -2 20 -4 3 -4 -38z"/>
<path d="M7472 4838 l-2 -68 -32 -1 c-24 -1 -27 -3 -10 -6 48 -9 13 -43 -44
-43 -49 0 -74 20 -67 52 4 19 3 20 -6 8 -15 -21 -14 -27 9 -50 36 -36 140 -21
140 21 0 5 35 10 78 10 42 1 66 4 52 6 -53 9 -60 64 -11 82 17 6 20 10 9 10
-29 2 -59 -36 -52 -64 6 -23 3 -25 -24 -25 l-31 0 -4 68 -3 67 -2 -67z"/>
<path d="M7842 4838 l-2 -68 -34 0 c-52 0 -66 9 -67 44 -2 31 -2 31 -6 3 -7
-47 10 -57 103 -57 l84 0 -2 53 -2 52 -3 -48 c-4 -46 -6 -48 -31 -45 -26 3
-27 7 -33 68 l-6 65 -1 -67z"/>
<path d="M8212 4833 l-2 -72 165 0 165 -1 0 34 c0 42 -24 68 -59 64 -23 -3
-26 -8 -29 -45 -3 -38 -6 -43 -28 -43 -19 0 -24 5 -25 28 0 15 -4 36 -9 47 -6
14 -8 7 -7 -25 2 -39 -1 -45 -18 -45 -16 0 -21 9 -26 40 l-5 40 -5 -40 c-3
-28 -9 -41 -21 -43 -15 -3 -18 4 -19 35 l-2 38 -6 -35 c-5 -29 -11 -36 -33
-38 -27 -3 -27 -3 -31 65 l-3 68 -2 -72z m310 -7 c16 -35 4 -56 -32 -56 -27 0
-30 3 -30 33 0 19 3 37 7 40 14 15 44 6 55 -17z"/>
<path d="M8882 4838 l-2 -68 -34 0 c-52 0 -66 9 -67 44 -2 31 -2 31 -6 3 -7
-47 10 -57 103 -57 l84 0 -2 53 -2 52 -3 -48 c-4 -46 -6 -48 -31 -45 -26 3
-27 7 -33 68 l-6 65 -1 -67z"/>
<path d="M9012 4833 l-2 -73 70 0 70 0 0 34 c0 42 -22 67 -58 65 l-27 -2 27
-4 c33 -5 50 -25 46 -55 -3 -21 -9 -23 -60 -26 l-57 -3 -4 68 -3 68 -2 -72z"/>
<path d="M9192 4833 l-2 -73 135 0 135 0 0 38 c0 21 -5 43 -12 50 -15 15 -68
16 -68 1 0 -5 5 -7 11 -4 5 4 21 4 35 1 20 -5 24 -13 24 -41 l0 -35 -59 0 -60
0 -4 48 -3 47 -2 -47 c-2 -44 -4 -48 -26 -48 -22 0 -25 5 -29 48 l-3 47 -2
-47 c-2 -46 -3 -48 -32 -48 -29 0 -29 0 -33 68 l-3 67 -2 -72z"/>
<path d="M9503 4830 c0 -41 2 -58 4 -37 2 20 2 54 0 75 -2 20 -4 3 -4 -38z"/>
<path d="M1462 4848 c-7 -7 -12 -24 -12 -38 0 -40 18 -50 87 -50 l63 0 -2 53
-2 52 -3 -47 c-4 -46 -6 -48 -34 -48 -28 0 -29 2 -29 45 0 43 -1 45 -28 45
-15 0 -33 -5 -40 -12z m58 -38 c0 -32 -4 -40 -18 -40 -10 0 -23 5 -30 12 -25
25 -6 68 30 68 14 0 18 -8 18 -40z"/>
<path d="M1718 4853 c26 -5 48 -43 39 -67 -3 -8 -21 -16 -39 -19 -18 -2 0 -5
40 -5 l72 -2 -2 53 -2 52 -3 -47 c-4 -43 -7 -48 -29 -48 -20 0 -24 5 -24 29 0
35 -23 62 -53 60 -21 -2 -21 -2 1 -6z"/>
<path d="M2110 4815 c0 -45 0 -45 -34 -45 -52 0 -66 9 -67 44 -2 31 -2 31 -6
3 -6 -42 12 -57 68 -57 l49 0 0 50 c0 28 -2 50 -5 50 -3 0 -5 -20 -5 -45z"/>
<path d="M2242 4810 c-2 -59 -8 -74 -32 -83 -13 -4 -12 -6 1 -6 29 -2 40 25
36 86 l-3 58 -2 -55z"/>
<path d="M3488 4835 c-16 -36 3 -75 38 -75 19 0 25 -4 22 -17 -4 -20 -53 -29
-96 -18 -22 5 -24 10 -19 46 3 22 1 37 -4 33 -13 -8 -11 -68 3 -82 13 -13 85
-16 112 -6 12 5 16 21 16 75 l0 69 -30 0 c-23 0 -33 -6 -42 -25z m62 -25 c0
-32 -4 -40 -18 -40 -10 0 -23 5 -30 12 -25 25 -6 68 30 68 14 0 18 -8 18 -40z"/>
<path d="M3611 4798 c-1 -44 -5 -68 -13 -71 -8 -2 -7 -3 2 -3 10 1 17 16 20
51 4 42 8 50 28 53 19 3 22 -1 22 -32 l0 -34 130 -1 130 -1 0 39 c0 44 -18 64
-52 59 -19 -2 -23 -10 -26 -45 -3 -40 -5 -43 -32 -43 -27 0 -29 3 -33 48 l-3
47 -2 -47 c-2 -41 -5 -48 -22 -48 -17 0 -20 7 -21 43 l-2 42 -6 -40 c-5 -32
-11 -41 -28 -43 -21 -3 -23 1 -24 45 0 26 -3 42 -6 36 -2 -7 -15 -13 -28 -13
-13 0 -26 6 -28 13 -3 6 -6 -18 -6 -55z m293 46 c10 -4 16 -18 16 -40 0 -31
-3 -34 -30 -34 -27 0 -30 3 -30 33 0 45 10 54 44 41z"/>
<path d="M4470 4847 c17 -9 26 -22 28 -44 3 -29 1 -32 -30 -35 -18 -3 69 -5
195 -5 l227 -2 -1 32 c0 18 -4 41 -9 52 -6 14 -8 7 -7 -25 2 -39 -1 -45 -18
-45 -16 0 -21 9 -26 40 l-5 40 -5 -40 c-3 -28 -9 -41 -21 -43 -15 -3 -18 4
-19 35 l-2 38 -6 -35 c-5 -29 -11 -36 -33 -38 -25 -3 -27 -1 -31 45 l-3 48 -2
-47 -2 -48 -41 0 c-39 0 -40 0 -25 22 9 12 16 30 16 40 0 21 -38 33 -70 23
-22 -7 -23 -24 -5 -67 6 -15 2 -18 -29 -18 -33 0 -36 2 -36 29 0 33 -22 61
-48 61 -12 0 -9 -4 8 -13z m154 -3 c21 -8 20 -27 -2 -48 -18 -15 -20 -15 -37
4 -30 33 -5 61 39 44z"/>
<path d="M5752 4848 c-7 -7 -12 -24 -12 -38 0 -32 17 -50 48 -50 33 0 23 -23
-14 -32 -27 -6 -27 -6 6 -5 l35 2 3 68 3 67 -29 0 c-15 0 -33 -5 -40 -12z m58
-38 c0 -32 -4 -40 -18 -40 -10 0 -23 5 -30 12 -25 25 -6 68 30 68 14 0 18 -8
18 -40z"/>
<path d="M7978 4853 c26 -5 48 -43 39 -67 -3 -8 -21 -16 -39 -19 -18 -2 17 -4
77 -4 61 0 98 2 83 4 -55 9 -62 63 -10 82 24 9 25 9 5 10 -28 1 -57 -40 -48
-69 5 -17 2 -20 -24 -20 -28 0 -31 3 -31 29 0 35 -23 62 -53 60 -21 -2 -21 -2
1 -6z"/>
<path d="M8582 4848 c-7 -7 -12 -24 -12 -38 0 -32 17 -50 48 -50 33 0 23 -23
-14 -32 -27 -6 -27 -6 6 -5 l35 2 3 68 3 67 -29 0 c-15 0 -33 -5 -40 -12z m58
-38 c0 -32 -4 -40 -18 -40 -10 0 -23 5 -30 12 -25 25 -6 68 30 68 14 0 18 -8
18 -40z"/>
<path d="M2890 4820 c-6 -11 -8 -25 -4 -31 4 -6 0 -15 -7 -20 -9 -6 4 -8 36
-7 34 1 40 2 18 5 -52 7 -52 56 0 66 18 4 17 5 -5 6 -18 1 -31 -6 -38 -19z"/>
<path d="M7778 4833 c6 -2 18 -2 25 0 6 3 1 5 -13 5 -14 0 -19 -2 -12 -5z"/>
<path d="M8818 4833 c6 -2 18 -2 25 0 6 3 1 5 -13 5 -14 0 -19 -2 -12 -5z"/>
<path d="M2557 4733 c-14 -13 -7 -23 16 -22 17 1 18 2 4 6 -9 2 -15 9 -12 14
7 10 1 12 -8 2z"/>
<path d="M5322 4538 l-2 -68 -42 0 c-52 0 -65 7 -71 40 -4 25 -4 25 -6 -2 -2
-38 23 -48 113 -48 l76 0 -2 53 -2 52 -3 -47 c-4 -43 -7 -48 -28 -48 -23 0
-24 4 -28 68 l-3 67 -2 -67z"/>
<path d="M5443 4530 c0 -41 2 -58 4 -37 2 20 2 54 0 75 -2 20 -4 3 -4 -38z"/>
<path d="M5892 4538 c-2 -61 -4 -68 -22 -68 -17 0 -20 7 -20 45 0 43 -1 45
-28 45 -35 0 -52 -16 -52 -50 0 -32 17 -50 48 -50 33 0 23 -23 -14 -31 l-29
-7 33 -1 c26 -1 35 4 39 19 5 18 14 20 114 20 l109 0 -2 53 -2 52 -3 -47 c-4
-43 -7 -48 -29 -48 -19 0 -24 5 -24 26 0 57 -35 80 -76 49 -28 -21 -32 -19
-37 23 -2 22 -4 11 -5 -30z m-52 -28 c0 -41 -9 -47 -44 -34 -19 7 -22 60 -3
67 36 15 47 7 47 -33z m148 28 c7 -7 12 -25 12 -41 0 -27 -1 -28 -47 -25 -55
4 -64 18 -29 53 28 28 46 31 64 13z"/>
<path d="M6392 4538 l-2 -68 -44 0 c-45 0 -60 10 -69 45 -4 15 -5 14 -6 -7 -1
-18 6 -31 19 -38 13 -7 119 -10 300 -9 l280 1 -2 51 -2 52 -3 -47 c-4 -47 -5
-48 -39 -48 -37 0 -41 6 -19 34 22 30 18 44 -15 51 -58 13 -94 -23 -55 -55 25
-21 17 -30 -25 -30 l-39 0 -4 68 -3 67 -2 -68 c-2 -68 -2 -68 -29 -65 -25 3
-29 8 -34 48 l-6 45 -1 -47 c-2 -44 -4 -48 -27 -48 -22 0 -25 4 -25 33 0 40
-15 57 -52 57 -29 0 -29 -2 -32 -65 -1 -14 -9 -21 -28 -23 -27 -3 -27 -2 -31
65 l-3 68 -2 -67z m122 6 c10 -4 16 -18 16 -40 0 -31 -3 -34 -29 -34 -31 0
-40 16 -33 58 4 22 17 27 46 16z m286 -4 c13 -8 11 -13 -11 -36 l-27 -26 -18
27 c-15 23 -15 28 -3 36 18 11 40 11 59 -1z"/>
<path d="M7352 4532 l-2 -72 230 0 230 1 -2 52 -2 52 -3 -47 c-3 -40 -8 -48
-24 -48 -16 0 -19 7 -20 43 -1 23 -3 33 -6 22 -2 -11 -6 -30 -9 -42 -3 -14
-12 -23 -24 -23 -14 0 -20 9 -23 38 l-4 37 -1 -37 c-2 -35 -4 -38 -31 -38 -28
0 -30 2 -34 48 l-3 47 -2 -47 c-2 -44 -4 -48 -26 -48 -22 0 -25 5 -29 48 l-3
47 -2 -48 c-2 -46 -3 -48 -29 -45 -23 2 -29 9 -31 33 -5 41 -20 57 -51 53 -23
-3 -26 -8 -29 -45 -3 -40 -5 -43 -32 -43 -29 0 -29 1 -33 68 l-3 67 -2 -73z
m122 12 c10 -4 16 -18 16 -40 0 -31 -3 -34 -30 -34 -27 0 -30 3 -30 33 0 45
10 54 44 41z"/>
<path d="M7930 4535 c0 -58 -2 -65 -19 -65 -17 0 -21 8 -24 53 l-3 52 -2 -52
c-2 -40 -6 -53 -19 -56 -10 -3 6 -5 35 -6 l52 -1 0 70 c0 40 -4 70 -10 70 -6
0 -10 -28 -10 -65z"/>
<path d="M7993 4530 c0 -41 2 -58 4 -37 2 20 2 54 0 75 -2 20 -4 3 -4 -38z"/>
<path d="M8572 4533 l-2 -73 75 0 75 0 0 39 c0 44 -18 64 -52 59 -19 -2 -23
-10 -26 -45 -3 -40 -5 -43 -32 -43 -29 0 -29 1 -33 68 l-3 67 -2 -72z m122 11
c10 -4 16 -18 16 -40 0 -31 -3 -34 -30 -34 -27 0 -30 3 -30 33 0 45 10 54 44
41z"/>
<path d="M9448 4538 c-3 -60 -4 -63 -30 -66 -25 -3 -27 -1 -31 45 l-3 48 -2
-48 c-2 -46 -3 -48 -29 -45 -25 3 -28 7 -31 46 -3 39 -5 42 -33 42 -22 0 -32
-7 -41 -25 -16 -36 3 -75 38 -75 35 0 26 -23 -12 -31 l-29 -7 33 -1 c26 -1 35
4 39 19 5 18 14 20 74 20 l69 0 0 70 c0 87 -8 92 -12 8z m-138 -28 c0 -33 -3
-40 -20 -40 -10 0 -24 9 -30 20 -14 26 3 60 30 60 17 0 20 -7 20 -40z"/>
<path d="M9503 4530 c0 -41 2 -58 4 -37 2 20 2 54 0 75 -2 20 -4 3 -4 -38z"/>
<path d="M5250 4545 c0 -8 8 -15 18 -14 10 0 12 3 4 6 -6 2 -10 9 -6 14 3 5 0
9 -5 9 -6 0 -11 -7 -11 -15z"/>
<path d="M5520 4547 c17 -9 26 -22 28 -44 3 -29 1 -32 -30 -36 l-33 -4 38 -1
c37 -2 37 -2 37 36 0 43 -14 62 -44 62 -19 0 -18 -2 4 -13z"/>
<path d="M5662 4510 c-2 -59 -8 -74 -32 -83 -13 -5 -13 -6 1 -6 8 -1 25 10 37
24 12 14 18 25 12 25 -5 0 -11 21 -13 48 l-3 47 -2 -55z"/>
<path d="M5720 4516 c0 -26 -5 -46 -12 -49 -8 -3 -6 -6 5 -6 14 -1 17 8 17 49
0 28 -2 50 -5 50 -3 0 -5 -20 -5 -44z"/>
<path d="M6123 4553 c-7 -2 -13 -22 -13 -43 0 -39 11 -50 52 -50 32 0 15 -24
-23 -31 l-34 -6 31 -2 c43 -2 54 15 54 81 0 57 -1 58 -27 57 -16 0 -34 -3 -40
-6z m52 -43 c0 -31 -3 -35 -25 -35 -19 0 -26 6 -28 23 -5 36 5 54 30 50 19 -2
23 -9 23 -38z"/>
<path d="M6320 4545 c0 -8 8 -15 18 -14 10 0 12 3 4 6 -6 2 -10 9 -6 14 3 5 0
9 -5 9 -6 0 -11 -7 -11 -15z"/>
<path d="M7120 4539 c-7 -11 -9 -32 -6 -45 6 -21 3 -24 -21 -25 -17 -1 -21 -3
-10 -6 21 -6 22 -29 1 -37 -27 -10 -79 -7 -96 7 -9 6 -19 23 -21 37 -4 21 -4
20 -6 -7 -1 -41 23 -55 87 -51 38 2 49 8 57 26 8 17 18 22 47 22 l38 0 0 50
c0 49 -1 50 -30 50 -20 0 -33 -7 -40 -21z m60 -29 c0 -32 -4 -40 -18 -40 -10
0 -23 5 -30 12 -25 25 -6 68 30 68 14 0 18 -8 18 -40z"/>
<path d="M7292 4498 c-2 -54 -5 -67 -19 -71 -17 -4 -17 -5 0 -6 24 -1 29 16
24 85 l-3 59 -2 -67z"/>
<path d="M8210 4515 l0 -45 -44 0 c-45 0 -60 10 -69 45 -4 15 -5 14 -6 -7 -1
-34 23 -48 83 -48 l46 0 0 50 c0 28 -2 50 -5 50 -3 0 -5 -20 -5 -45z"/>
<path d="M8272 4503 c-2 -47 -6 -64 -19 -72 -17 -10 -17 -10 0 -11 24 0 29 17
24 86 l-3 59 -2 -62z"/>
<path d="M8332 4503 c-2 -47 -6 -64 -19 -72 -16 -9 -17 -10 -1 -11 9 0 20 9
23 20 5 17 15 20 71 20 l64 0 0 50 c0 49 -1 50 -30 50 -34 0 -55 -29 -46 -66
6 -21 3 -24 -23 -24 -28 0 -30 2 -34 48 -3 43 -4 42 -5 -15z m128 7 c0 -32 -4
-40 -18 -40 -10 0 -23 5 -30 12 -25 25 -6 68 30 68 14 0 18 -8 18 -40z"/>
<path d="M8790 4547 c17 -9 26 -22 28 -44 3 -29 1 -32 -30 -36 -18 -2 28 -4
102 -4 74 0 124 2 110 4 -50 10 -55 57 -7 78 26 12 28 14 10 15 -32 0 -56 -28
-51 -62 4 -27 3 -29 -26 -26 -29 3 -31 7 -37 48 l-6 45 -1 -47 c-2 -44 -4 -48
-27 -48 -22 0 -25 4 -25 33 0 38 -15 57 -44 57 -19 0 -18 -2 4 -13z"/>
<path d="M9126 4538 c-8 -38 -15 -145 -8 -113 6 27 12 30 50 33 40 3 42 4 42
37 0 39 -22 65 -56 65 -16 0 -25 -7 -28 -22z m62 0 c7 -7 12 -25 12 -41 0 -26
-3 -28 -32 -25 -26 2 -34 8 -36 26 -2 13 -1 30 2 38 7 17 38 18 54 2z"/>
<path d="M12880 4400 c0 -5 5 -10 10 -10 6 0 10 5 10 10 0 6 -4 10 -10 10 -5
0 -10 -4 -10 -10z"/>
<path d="M12869 4325 c-2 -13 -2 -10 5 -71 3 -36 1 -57 -9 -70 -18 -24 -19
-44 -1 -44 26 0 44 145 21 176 -8 10 -15 15 -16 9z"/>
<path d="M8060 4160 c-99 -34 -180 -147 -180 -250 0 -97 79 -212 168 -247 53
-20 28 -20 769 -15 l463 3 0 67 c0 37 -1 103 -1 147 -1 44 -1 102 -1 129 1 28
-3 55 -9 62 -7 8 -6 15 2 20 7 4 9 3 6 -3 -3 -5 0 -10 8 -10 10 0 12 4 5 12
-5 6 -11 33 -11 58 l-2 47 -581 0 c-543 -1 -585 -2 -636 -20z m287 -75 c73
-31 113 -92 113 -175 0 -119 -90 -199 -211 -188 -104 10 -176 97 -167 203 11
132 143 211 265 160z m753 -54 c0 -5 -6 -12 -12 -14 -8 -3 -5 -6 6 -6 12 -1
16 -6 12 -17 -3 -9 -6 -47 -6 -85 0 -61 -2 -69 -19 -69 -16 0 -19 10 -23 93
-3 50 -3 95 -1 100 6 10 43 9 43 -2z m-202 -41 l32 0 0 -75 0 -75 -65 0 c-61
0 -85 13 -50 26 10 4 15 20 15 51 0 37 3 44 18 41 12 -2 18 -15 20 -46 5 -61
22 -52 22 12 l0 54 -34 -8 c-39 -9 -47 -5 -39 17 4 9 13 13 27 9 11 -3 36 -6
54 -6z m92 -75 c0 -68 -2 -75 -20 -75 -18 0 -20 7 -20 75 0 68 2 75 20 75 18
0 20 -7 20 -75z m-250 40 c0 -8 -7 -15 -15 -15 -8 0 -15 7 -15 15 0 8 7 15 15
15 8 0 15 -7 15 -15z m50 -80 c0 -71 -11 -85 -68 -85 -42 0 -66 31 -58 75 9
48 34 46 38 -2 2 -31 7 -39 26 -41 21 -3 22 0 22 57 0 54 2 61 20 61 18 0 20
-7 20 -65z m398 53 c7 -7 12 -22 12 -35 0 -14 6 -23 15 -23 10 0 15 11 15 35
0 28 4 35 20 35 17 0 20 -7 20 -50 l0 -50 -80 0 c-64 0 -80 3 -80 15 0 9 9 15
25 15 33 0 36 37 3 42 -12 2 -23 9 -26 16 -5 16 60 16 76 0z m82 -123 c0 -8
-9 -15 -20 -15 -11 0 -20 7 -20 15 0 8 9 15 20 15 11 0 20 -7 20 -15z"/>
<path d="M8260 3945 l-34 -35 34 -35 c40 -41 51 -39 19 4 l-23 31 23 31 c32
43 21 45 -19 4z"/>
<path d="M12830 4130 c0 -5 5 -10 11 -10 5 0 7 5 4 10 -3 6 -8 10 -11 10 -2 0
-4 -4 -4 -10z"/>
<path d="M12670 4062 c0 -6 -8 -13 -17 -15 -16 -4 -16 -5 -1 -6 18 -1 34 16
24 26 -3 4 -6 1 -6 -5z"/>
<path d="M12730 4020 l-45 -7 43 -1 c26 -1 41 -6 37 -12 -3 -5 -1 -10 6 -10 6
0 1 -8 -11 -18 -20 -16 -21 -20 -7 -25 11 -4 14 -2 10 9 -3 8 1 14 11 14 9 0
16 8 16 20 0 17 7 20 51 20 45 0 50 -2 44 -19 -3 -11 -2 -22 3 -24 4 -3 9 8
10 24 2 28 1 29 -47 29 -27 0 -55 2 -63 3 -7 2 -33 1 -58 -3z"/>
<path d="M12603 4013 c9 -2 25 -2 35 0 9 3 1 5 -18 5 -19 0 -27 -2 -17 -5z"/>
<path d="M12928 4013 c12 -2 32 -2 45 0 12 2 2 4 -23 4 -25 0 -35 -2 -22 -4z"/>
<path d="M12552 3961 c-13 -23 -20 -41 -15 -41 4 0 -1 -8 -13 -18 -17 -14 -56
-72 -108 -159 -4 -8 -1 -13 9 -13 9 0 14 4 10 9 -7 12 32 34 45 26 17 -10 11
-23 -12 -28 -17 -3 -15 -5 9 -6 20 -1 41 7 57 22 31 27 99 164 90 179 -4 6 -3
8 3 5 6 -4 13 0 17 8 3 8 0 15 -7 15 -8 0 -6 4 3 10 12 8 10 10 -8 10 -13 0
-20 -4 -17 -10 3 -5 0 -10 -8 -10 -8 0 -18 9 -23 21 -9 19 -11 17 -32 -20z
m53 -29 c-3 -3 -11 0 -18 7 -9 10 -8 11 6 5 10 -3 15 -9 12 -12z m5 -22 c0 -5
-8 -10 -17 -10 -15 0 -16 2 -3 10 19 12 20 12 20 0z m-83 -106 c-3 -3 -12 -4
-19 -1 -8 3 -5 6 6 6 11 1 17 -2 13 -5z"/>
<path d="M12820 3979 c0 -5 5 -7 10 -4 6 3 10 8 10 11 0 2 -4 4 -10 4 -5 0
-10 -5 -10 -11z"/>
<path d="M12652 3927 c-29 -64 -45 -118 -38 -124 3 -4 6 -1 6 5 0 7 9 12 21
12 13 0 18 -4 13 -12 -5 -9 -2 -9 9 1 15 12 17 11 17 -3 0 -9 5 -16 10 -16 6
0 10 -5 10 -12 0 -6 -3 -8 -7 -5 -3 4 -13 1 -21 -6 -13 -10 -15 -9 -9 6 5 13
1 17 -16 16 -12 0 -31 -4 -42 -9 -19 -8 -19 -9 3 -9 13 -1 21 -5 18 -10 -7
-11 34 -22 48 -13 15 8 46 10 46 2 0 -4 7 -7 17 -7 13 0 11 4 -7 19 -13 10
-20 24 -16 33 3 9 0 15 -9 15 -21 0 -18 16 7 40 21 19 21 20 2 21 -10 1 -26 0
-33 -1 -12 -1 -13 1 -2 13 8 10 9 17 1 22 -7 4 -7 12 0 25 13 24 13 40 0 40
-5 0 -18 -19 -28 -43z"/>
<path d="M13020 3957 c0 -17 20 -37 37 -37 21 0 15 16 -12 34 -19 13 -25 13
-25 3z"/>
<path d="M12815 3940 c3 -5 14 -10 23 -10 15 0 15 2 2 10 -20 13 -33 13 -25 0z"/>
<path d="M12923 3935 c0 -8 4 -12 9 -9 4 3 8 9 8 15 0 5 -4 9 -8 9 -5 0 -9 -7
-9 -15z"/>
<path d="M13126 3933 c-3 -8 0 -21 8 -29 13 -12 17 -12 30 2 22 22 20 31 -8
36 -16 3 -27 0 -30 -9z"/>
<path d="M12787 3929 c7 -7 15 -10 18 -7 3 3 -2 9 -12 12 -14 6 -15 5 -6 -5z"/>
<path d="M12885 3921 c-5 -18 -15 -21 -63 -23 -43 -1 -48 -2 -20 -5 l38 -4
-27 -25 -26 -24 27 0 c29 0 31 -3 16 -31 -11 -20 -40 -27 -40 -9 0 5 -10 8
-22 6 -13 -3 -25 -5 -28 -5 -14 -3 28 -21 48 -21 22 0 22 0 -8 -57 -31 -59
-61 -105 -102 -157 l-22 -29 32 6 c24 5 32 3 32 -8 0 -8 3 -15 8 -16 4 0 16
-2 27 -5 135 -28 562 -51 582 -31 2 3 -1 15 -6 28 -12 30 -18 51 -19 63 0 5
-4 12 -9 15 -5 3 -17 24 -27 46 -11 22 -22 42 -26 45 -3 3 -19 23 -33 45 -37
55 -34 42 17 -66 24 -52 49 -111 54 -131 l10 -38 -44 0 c-42 0 -46 2 -61 38
-29 68 -45 136 -54 227 -8 79 -23 116 -39 98 -3 -3 1 -8 8 -10 10 -4 8 -9 -7
-20 -12 -8 -21 -19 -21 -25 0 -5 -9 -23 -21 -39 -11 -16 -22 -36 -23 -44 -1
-9 -8 -21 -14 -27 -7 -7 -12 -17 -12 -23 0 -5 -9 -21 -20 -35 -16 -20 -20 -22
-20 -7 0 9 -4 17 -9 17 -5 0 -8 12 -8 27 0 15 -6 29 -12 31 -16 5 -14 32 4 32
11 0 13 12 9 58 -6 82 -11 98 -38 127 -24 25 -24 26 -31 6z m235 -221 c0 -5
-4 -10 -10 -10 -5 0 -10 5 -10 10 0 6 5 10 10 10 6 0 10 -4 10 -10z m-60 -80
c0 -5 -2 -10 -4 -10 -3 0 -8 5 -11 10 -3 6 -1 10 4 10 6 0 11 -4 11 -10z
m-310 -24 c0 -11 -19 -15 -25 -6 -3 5 1 10 9 10 9 0 16 -2 16 -4z m285 -55 c3
-5 1 -12 -5 -16 -5 -3 -10 1 -10 9 0 18 6 21 15 7z"/>
<path d="M12708 3893 c6 -2 18 -2 25 0 6 3 1 5 -13 5 -14 0 -19 -2 -12 -5z"/>
<path d="M13182 3884 c-8 -9 -11 -23 -7 -32 6 -15 8 -13 16 7 12 31 8 43 -9
25z"/>
<path d="M15873 3885 c0 -8 4 -12 9 -9 5 3 6 10 3 15 -9 13 -12 11 -12 -6z"/>
<path d="M15886 3862 c-3 -5 1 -9 9 -9 8 0 12 4 9 9 -3 4 -7 8 -9 8 -2 0 -6
-4 -9 -8z"/>
<path d="M12792 3818 c5 -15 28 -23 28 -10 0 5 -7 13 -16 16 -10 4 -14 1 -12
-6z"/>
<path d="M13373 3332 c-8 -5 -8 -12 2 -25 12 -16 13 -16 17 8 5 26 1 30 -19
17z"/>
<path d="M13320 3303 c1 -27 1 -27 15 -9 19 25 19 36 0 36 -10 0 -15 -10 -15
-27z"/>
<path d="M15660 2650 c-8 -5 -10 -10 -5 -10 6 0 17 5 25 10 8 5 11 10 5 10 -5
0 -17 -5 -25 -10z"/>
<path d="M15580 2640 c0 -5 -10 -10 -22 -11 -13 0 -17 -3 -10 -6 18 -7 62 5
62 17 0 6 -7 10 -15 10 -8 0 -15 -4 -15 -10z"/>
</g>
</svg>
